%TF.GenerationSoftware,KiCad,Pcbnew,8.0.7-8.0.7-0~ubuntu20.04.1*%
%TF.CreationDate,2024-12-27T01:05:19+01:00*%
%TF.ProjectId,pcb_power,7063625f-706f-4776-9572-2e6b69636164,1.0.0*%
%TF.SameCoordinates,Original*%
%TF.FileFunction,AssemblyDrawing,Top*%
%FSLAX46Y46*%
G04 Gerber Fmt 4.6, Leading zero omitted, Abs format (unit mm)*
G04 Created by KiCad (PCBNEW 8.0.7-8.0.7-0~ubuntu20.04.1) date 2024-12-27 01:05:19*
%MOMM*%
%LPD*%
G01*
G04 APERTURE LIST*
%ADD10C,0.150000*%
%ADD11C,0.100000*%
G04 APERTURE END LIST*
D10*
X118676190Y-93324819D02*
X118771428Y-93324819D01*
X118771428Y-93324819D02*
X118866666Y-93372438D01*
X118866666Y-93372438D02*
X118914285Y-93420057D01*
X118914285Y-93420057D02*
X118961904Y-93515295D01*
X118961904Y-93515295D02*
X119009523Y-93705771D01*
X119009523Y-93705771D02*
X119009523Y-93943866D01*
X119009523Y-93943866D02*
X118961904Y-94134342D01*
X118961904Y-94134342D02*
X118914285Y-94229580D01*
X118914285Y-94229580D02*
X118866666Y-94277200D01*
X118866666Y-94277200D02*
X118771428Y-94324819D01*
X118771428Y-94324819D02*
X118676190Y-94324819D01*
X118676190Y-94324819D02*
X118580952Y-94277200D01*
X118580952Y-94277200D02*
X118533333Y-94229580D01*
X118533333Y-94229580D02*
X118485714Y-94134342D01*
X118485714Y-94134342D02*
X118438095Y-93943866D01*
X118438095Y-93943866D02*
X118438095Y-93705771D01*
X118438095Y-93705771D02*
X118485714Y-93515295D01*
X118485714Y-93515295D02*
X118533333Y-93420057D01*
X118533333Y-93420057D02*
X118580952Y-93372438D01*
X118580952Y-93372438D02*
X118676190Y-93324819D01*
X120009523Y-94324819D02*
X119676190Y-93848628D01*
X119438095Y-94324819D02*
X119438095Y-93324819D01*
X119438095Y-93324819D02*
X119819047Y-93324819D01*
X119819047Y-93324819D02*
X119914285Y-93372438D01*
X119914285Y-93372438D02*
X119961904Y-93420057D01*
X119961904Y-93420057D02*
X120009523Y-93515295D01*
X120009523Y-93515295D02*
X120009523Y-93658152D01*
X120009523Y-93658152D02*
X119961904Y-93753390D01*
X119961904Y-93753390D02*
X119914285Y-93801009D01*
X119914285Y-93801009D02*
X119819047Y-93848628D01*
X119819047Y-93848628D02*
X119438095Y-93848628D01*
X120390476Y-93420057D02*
X120438095Y-93372438D01*
X120438095Y-93372438D02*
X120533333Y-93324819D01*
X120533333Y-93324819D02*
X120771428Y-93324819D01*
X120771428Y-93324819D02*
X120866666Y-93372438D01*
X120866666Y-93372438D02*
X120914285Y-93420057D01*
X120914285Y-93420057D02*
X120961904Y-93515295D01*
X120961904Y-93515295D02*
X120961904Y-93610533D01*
X120961904Y-93610533D02*
X120914285Y-93753390D01*
X120914285Y-93753390D02*
X120342857Y-94324819D01*
X120342857Y-94324819D02*
X120961904Y-94324819D01*
X119057142Y-90954819D02*
X118723809Y-90478628D01*
X118485714Y-90954819D02*
X118485714Y-89954819D01*
X118485714Y-89954819D02*
X118866666Y-89954819D01*
X118866666Y-89954819D02*
X118961904Y-90002438D01*
X118961904Y-90002438D02*
X119009523Y-90050057D01*
X119009523Y-90050057D02*
X119057142Y-90145295D01*
X119057142Y-90145295D02*
X119057142Y-90288152D01*
X119057142Y-90288152D02*
X119009523Y-90383390D01*
X119009523Y-90383390D02*
X118961904Y-90431009D01*
X118961904Y-90431009D02*
X118866666Y-90478628D01*
X118866666Y-90478628D02*
X118485714Y-90478628D01*
X119914285Y-90288152D02*
X119914285Y-90954819D01*
X119676190Y-89907200D02*
X119438095Y-90621485D01*
X119438095Y-90621485D02*
X120057142Y-90621485D01*
X120628571Y-89954819D02*
X120723809Y-89954819D01*
X120723809Y-89954819D02*
X120819047Y-90002438D01*
X120819047Y-90002438D02*
X120866666Y-90050057D01*
X120866666Y-90050057D02*
X120914285Y-90145295D01*
X120914285Y-90145295D02*
X120961904Y-90335771D01*
X120961904Y-90335771D02*
X120961904Y-90573866D01*
X120961904Y-90573866D02*
X120914285Y-90764342D01*
X120914285Y-90764342D02*
X120866666Y-90859580D01*
X120866666Y-90859580D02*
X120819047Y-90907200D01*
X120819047Y-90907200D02*
X120723809Y-90954819D01*
X120723809Y-90954819D02*
X120628571Y-90954819D01*
X120628571Y-90954819D02*
X120533333Y-90907200D01*
X120533333Y-90907200D02*
X120485714Y-90859580D01*
X120485714Y-90859580D02*
X120438095Y-90764342D01*
X120438095Y-90764342D02*
X120390476Y-90573866D01*
X120390476Y-90573866D02*
X120390476Y-90335771D01*
X120390476Y-90335771D02*
X120438095Y-90145295D01*
X120438095Y-90145295D02*
X120485714Y-90050057D01*
X120485714Y-90050057D02*
X120533333Y-90002438D01*
X120533333Y-90002438D02*
X120628571Y-89954819D01*
X140675502Y-52100057D02*
X140723121Y-52052438D01*
X140723121Y-52052438D02*
X140818359Y-52004819D01*
X140818359Y-52004819D02*
X141056454Y-52004819D01*
X141056454Y-52004819D02*
X141151692Y-52052438D01*
X141151692Y-52052438D02*
X141199311Y-52100057D01*
X141199311Y-52100057D02*
X141246930Y-52195295D01*
X141246930Y-52195295D02*
X141246930Y-52290533D01*
X141246930Y-52290533D02*
X141199311Y-52433390D01*
X141199311Y-52433390D02*
X140627883Y-53004819D01*
X140627883Y-53004819D02*
X141246930Y-53004819D01*
X141627883Y-52100057D02*
X141675502Y-52052438D01*
X141675502Y-52052438D02*
X141770740Y-52004819D01*
X141770740Y-52004819D02*
X142008835Y-52004819D01*
X142008835Y-52004819D02*
X142104073Y-52052438D01*
X142104073Y-52052438D02*
X142151692Y-52100057D01*
X142151692Y-52100057D02*
X142199311Y-52195295D01*
X142199311Y-52195295D02*
X142199311Y-52290533D01*
X142199311Y-52290533D02*
X142151692Y-52433390D01*
X142151692Y-52433390D02*
X141580264Y-53004819D01*
X141580264Y-53004819D02*
X142199311Y-53004819D01*
X142818359Y-52004819D02*
X142913597Y-52004819D01*
X142913597Y-52004819D02*
X143008835Y-52052438D01*
X143008835Y-52052438D02*
X143056454Y-52100057D01*
X143056454Y-52100057D02*
X143104073Y-52195295D01*
X143104073Y-52195295D02*
X143151692Y-52385771D01*
X143151692Y-52385771D02*
X143151692Y-52623866D01*
X143151692Y-52623866D02*
X143104073Y-52814342D01*
X143104073Y-52814342D02*
X143056454Y-52909580D01*
X143056454Y-52909580D02*
X143008835Y-52957200D01*
X143008835Y-52957200D02*
X142913597Y-53004819D01*
X142913597Y-53004819D02*
X142818359Y-53004819D01*
X142818359Y-53004819D02*
X142723121Y-52957200D01*
X142723121Y-52957200D02*
X142675502Y-52909580D01*
X142675502Y-52909580D02*
X142627883Y-52814342D01*
X142627883Y-52814342D02*
X142580264Y-52623866D01*
X142580264Y-52623866D02*
X142580264Y-52385771D01*
X142580264Y-52385771D02*
X142627883Y-52195295D01*
X142627883Y-52195295D02*
X142675502Y-52100057D01*
X142675502Y-52100057D02*
X142723121Y-52052438D01*
X142723121Y-52052438D02*
X142818359Y-52004819D01*
X143770740Y-52004819D02*
X143865978Y-52004819D01*
X143865978Y-52004819D02*
X143961216Y-52052438D01*
X143961216Y-52052438D02*
X144008835Y-52100057D01*
X144008835Y-52100057D02*
X144056454Y-52195295D01*
X144056454Y-52195295D02*
X144104073Y-52385771D01*
X144104073Y-52385771D02*
X144104073Y-52623866D01*
X144104073Y-52623866D02*
X144056454Y-52814342D01*
X144056454Y-52814342D02*
X144008835Y-52909580D01*
X144008835Y-52909580D02*
X143961216Y-52957200D01*
X143961216Y-52957200D02*
X143865978Y-53004819D01*
X143865978Y-53004819D02*
X143770740Y-53004819D01*
X143770740Y-53004819D02*
X143675502Y-52957200D01*
X143675502Y-52957200D02*
X143627883Y-52909580D01*
X143627883Y-52909580D02*
X143580264Y-52814342D01*
X143580264Y-52814342D02*
X143532645Y-52623866D01*
X143532645Y-52623866D02*
X143532645Y-52385771D01*
X143532645Y-52385771D02*
X143580264Y-52195295D01*
X143580264Y-52195295D02*
X143627883Y-52100057D01*
X143627883Y-52100057D02*
X143675502Y-52052438D01*
X143675502Y-52052438D02*
X143770740Y-52004819D01*
X144961216Y-52338152D02*
X144961216Y-53004819D01*
X144532645Y-52338152D02*
X144532645Y-52861961D01*
X144532645Y-52861961D02*
X144580264Y-52957200D01*
X144580264Y-52957200D02*
X144675502Y-53004819D01*
X144675502Y-53004819D02*
X144818359Y-53004819D01*
X144818359Y-53004819D02*
X144913597Y-52957200D01*
X144913597Y-52957200D02*
X144961216Y-52909580D01*
X142199311Y-40659580D02*
X142151692Y-40707200D01*
X142151692Y-40707200D02*
X142008835Y-40754819D01*
X142008835Y-40754819D02*
X141913597Y-40754819D01*
X141913597Y-40754819D02*
X141770740Y-40707200D01*
X141770740Y-40707200D02*
X141675502Y-40611961D01*
X141675502Y-40611961D02*
X141627883Y-40516723D01*
X141627883Y-40516723D02*
X141580264Y-40326247D01*
X141580264Y-40326247D02*
X141580264Y-40183390D01*
X141580264Y-40183390D02*
X141627883Y-39992914D01*
X141627883Y-39992914D02*
X141675502Y-39897676D01*
X141675502Y-39897676D02*
X141770740Y-39802438D01*
X141770740Y-39802438D02*
X141913597Y-39754819D01*
X141913597Y-39754819D02*
X142008835Y-39754819D01*
X142008835Y-39754819D02*
X142151692Y-39802438D01*
X142151692Y-39802438D02*
X142199311Y-39850057D01*
X142532645Y-39754819D02*
X143151692Y-39754819D01*
X143151692Y-39754819D02*
X142818359Y-40135771D01*
X142818359Y-40135771D02*
X142961216Y-40135771D01*
X142961216Y-40135771D02*
X143056454Y-40183390D01*
X143056454Y-40183390D02*
X143104073Y-40231009D01*
X143104073Y-40231009D02*
X143151692Y-40326247D01*
X143151692Y-40326247D02*
X143151692Y-40564342D01*
X143151692Y-40564342D02*
X143104073Y-40659580D01*
X143104073Y-40659580D02*
X143056454Y-40707200D01*
X143056454Y-40707200D02*
X142961216Y-40754819D01*
X142961216Y-40754819D02*
X142675502Y-40754819D01*
X142675502Y-40754819D02*
X142580264Y-40707200D01*
X142580264Y-40707200D02*
X142532645Y-40659580D01*
X144104073Y-40754819D02*
X143532645Y-40754819D01*
X143818359Y-40754819D02*
X143818359Y-39754819D01*
X143818359Y-39754819D02*
X143723121Y-39897676D01*
X143723121Y-39897676D02*
X143627883Y-39992914D01*
X143627883Y-39992914D02*
X143532645Y-40040533D01*
X67216667Y-48031009D02*
X66883334Y-48031009D01*
X66883334Y-48554819D02*
X66883334Y-47554819D01*
X66883334Y-47554819D02*
X67359524Y-47554819D01*
X67740477Y-48554819D02*
X67740477Y-47554819D01*
X68216667Y-48554819D02*
X68216667Y-47554819D01*
X68216667Y-47554819D02*
X68788095Y-48554819D01*
X68788095Y-48554819D02*
X68788095Y-47554819D01*
X69264286Y-48554819D02*
X69264286Y-47554819D01*
X69264286Y-47554819D02*
X69502381Y-47554819D01*
X69502381Y-47554819D02*
X69645238Y-47602438D01*
X69645238Y-47602438D02*
X69740476Y-47697676D01*
X69740476Y-47697676D02*
X69788095Y-47792914D01*
X69788095Y-47792914D02*
X69835714Y-47983390D01*
X69835714Y-47983390D02*
X69835714Y-48126247D01*
X69835714Y-48126247D02*
X69788095Y-48316723D01*
X69788095Y-48316723D02*
X69740476Y-48411961D01*
X69740476Y-48411961D02*
X69645238Y-48507200D01*
X69645238Y-48507200D02*
X69502381Y-48554819D01*
X69502381Y-48554819D02*
X69264286Y-48554819D01*
X70264286Y-48031009D02*
X70597619Y-48031009D01*
X70740476Y-48554819D02*
X70264286Y-48554819D01*
X70264286Y-48554819D02*
X70264286Y-47554819D01*
X70264286Y-47554819D02*
X70740476Y-47554819D01*
X71740476Y-48554819D02*
X71407143Y-48078628D01*
X71169048Y-48554819D02*
X71169048Y-47554819D01*
X71169048Y-47554819D02*
X71550000Y-47554819D01*
X71550000Y-47554819D02*
X71645238Y-47602438D01*
X71645238Y-47602438D02*
X71692857Y-47650057D01*
X71692857Y-47650057D02*
X71740476Y-47745295D01*
X71740476Y-47745295D02*
X71740476Y-47888152D01*
X71740476Y-47888152D02*
X71692857Y-47983390D01*
X71692857Y-47983390D02*
X71645238Y-48031009D01*
X71645238Y-48031009D02*
X71550000Y-48078628D01*
X71550000Y-48078628D02*
X71169048Y-48078628D01*
X72169048Y-48173866D02*
X72930953Y-48173866D01*
X73835714Y-47888152D02*
X73835714Y-48554819D01*
X73597619Y-47507200D02*
X73359524Y-48221485D01*
X73359524Y-48221485D02*
X73978571Y-48221485D01*
X74550000Y-47554819D02*
X74645238Y-47554819D01*
X74645238Y-47554819D02*
X74740476Y-47602438D01*
X74740476Y-47602438D02*
X74788095Y-47650057D01*
X74788095Y-47650057D02*
X74835714Y-47745295D01*
X74835714Y-47745295D02*
X74883333Y-47935771D01*
X74883333Y-47935771D02*
X74883333Y-48173866D01*
X74883333Y-48173866D02*
X74835714Y-48364342D01*
X74835714Y-48364342D02*
X74788095Y-48459580D01*
X74788095Y-48459580D02*
X74740476Y-48507200D01*
X74740476Y-48507200D02*
X74645238Y-48554819D01*
X74645238Y-48554819D02*
X74550000Y-48554819D01*
X74550000Y-48554819D02*
X74454762Y-48507200D01*
X74454762Y-48507200D02*
X74407143Y-48459580D01*
X74407143Y-48459580D02*
X74359524Y-48364342D01*
X74359524Y-48364342D02*
X74311905Y-48173866D01*
X74311905Y-48173866D02*
X74311905Y-47935771D01*
X74311905Y-47935771D02*
X74359524Y-47745295D01*
X74359524Y-47745295D02*
X74407143Y-47650057D01*
X74407143Y-47650057D02*
X74454762Y-47602438D01*
X74454762Y-47602438D02*
X74550000Y-47554819D01*
X75311905Y-48459580D02*
X75359524Y-48507200D01*
X75359524Y-48507200D02*
X75311905Y-48554819D01*
X75311905Y-48554819D02*
X75264286Y-48507200D01*
X75264286Y-48507200D02*
X75311905Y-48459580D01*
X75311905Y-48459580D02*
X75311905Y-48554819D01*
X76216666Y-47888152D02*
X76216666Y-48554819D01*
X75978571Y-47507200D02*
X75740476Y-48221485D01*
X75740476Y-48221485D02*
X76359523Y-48221485D01*
X77264285Y-48554819D02*
X76692857Y-48554819D01*
X76978571Y-48554819D02*
X76978571Y-47554819D01*
X76978571Y-47554819D02*
X76883333Y-47697676D01*
X76883333Y-47697676D02*
X76788095Y-47792914D01*
X76788095Y-47792914D02*
X76692857Y-47840533D01*
X71735714Y-38929819D02*
X71735714Y-37929819D01*
X72307142Y-38929819D02*
X71878571Y-38358390D01*
X72307142Y-37929819D02*
X71735714Y-38501247D01*
X72688095Y-38025057D02*
X72735714Y-37977438D01*
X72735714Y-37977438D02*
X72830952Y-37929819D01*
X72830952Y-37929819D02*
X73069047Y-37929819D01*
X73069047Y-37929819D02*
X73164285Y-37977438D01*
X73164285Y-37977438D02*
X73211904Y-38025057D01*
X73211904Y-38025057D02*
X73259523Y-38120295D01*
X73259523Y-38120295D02*
X73259523Y-38215533D01*
X73259523Y-38215533D02*
X73211904Y-38358390D01*
X73211904Y-38358390D02*
X72640476Y-38929819D01*
X72640476Y-38929819D02*
X73259523Y-38929819D01*
X73878571Y-37929819D02*
X73973809Y-37929819D01*
X73973809Y-37929819D02*
X74069047Y-37977438D01*
X74069047Y-37977438D02*
X74116666Y-38025057D01*
X74116666Y-38025057D02*
X74164285Y-38120295D01*
X74164285Y-38120295D02*
X74211904Y-38310771D01*
X74211904Y-38310771D02*
X74211904Y-38548866D01*
X74211904Y-38548866D02*
X74164285Y-38739342D01*
X74164285Y-38739342D02*
X74116666Y-38834580D01*
X74116666Y-38834580D02*
X74069047Y-38882200D01*
X74069047Y-38882200D02*
X73973809Y-38929819D01*
X73973809Y-38929819D02*
X73878571Y-38929819D01*
X73878571Y-38929819D02*
X73783333Y-38882200D01*
X73783333Y-38882200D02*
X73735714Y-38834580D01*
X73735714Y-38834580D02*
X73688095Y-38739342D01*
X73688095Y-38739342D02*
X73640476Y-38548866D01*
X73640476Y-38548866D02*
X73640476Y-38310771D01*
X73640476Y-38310771D02*
X73688095Y-38120295D01*
X73688095Y-38120295D02*
X73735714Y-38025057D01*
X73735714Y-38025057D02*
X73783333Y-37977438D01*
X73783333Y-37977438D02*
X73878571Y-37929819D01*
X79531009Y-64833332D02*
X79531009Y-65166665D01*
X80054819Y-65166665D02*
X79054819Y-65166665D01*
X79054819Y-65166665D02*
X79054819Y-64690475D01*
X80054819Y-64309522D02*
X79054819Y-64309522D01*
X80054819Y-63833332D02*
X79054819Y-63833332D01*
X79054819Y-63833332D02*
X80054819Y-63261904D01*
X80054819Y-63261904D02*
X79054819Y-63261904D01*
X80054819Y-62785713D02*
X79054819Y-62785713D01*
X79054819Y-62785713D02*
X79054819Y-62547618D01*
X79054819Y-62547618D02*
X79102438Y-62404761D01*
X79102438Y-62404761D02*
X79197676Y-62309523D01*
X79197676Y-62309523D02*
X79292914Y-62261904D01*
X79292914Y-62261904D02*
X79483390Y-62214285D01*
X79483390Y-62214285D02*
X79626247Y-62214285D01*
X79626247Y-62214285D02*
X79816723Y-62261904D01*
X79816723Y-62261904D02*
X79911961Y-62309523D01*
X79911961Y-62309523D02*
X80007200Y-62404761D01*
X80007200Y-62404761D02*
X80054819Y-62547618D01*
X80054819Y-62547618D02*
X80054819Y-62785713D01*
X79531009Y-61785713D02*
X79531009Y-61452380D01*
X80054819Y-61309523D02*
X80054819Y-61785713D01*
X80054819Y-61785713D02*
X79054819Y-61785713D01*
X79054819Y-61785713D02*
X79054819Y-61309523D01*
X80054819Y-60309523D02*
X79578628Y-60642856D01*
X80054819Y-60880951D02*
X79054819Y-60880951D01*
X79054819Y-60880951D02*
X79054819Y-60499999D01*
X79054819Y-60499999D02*
X79102438Y-60404761D01*
X79102438Y-60404761D02*
X79150057Y-60357142D01*
X79150057Y-60357142D02*
X79245295Y-60309523D01*
X79245295Y-60309523D02*
X79388152Y-60309523D01*
X79388152Y-60309523D02*
X79483390Y-60357142D01*
X79483390Y-60357142D02*
X79531009Y-60404761D01*
X79531009Y-60404761D02*
X79578628Y-60499999D01*
X79578628Y-60499999D02*
X79578628Y-60880951D01*
X79673866Y-59880951D02*
X79673866Y-59119047D01*
X79388152Y-58214285D02*
X80054819Y-58214285D01*
X79007200Y-58452380D02*
X79721485Y-58690475D01*
X79721485Y-58690475D02*
X79721485Y-58071428D01*
X79054819Y-57499999D02*
X79054819Y-57404761D01*
X79054819Y-57404761D02*
X79102438Y-57309523D01*
X79102438Y-57309523D02*
X79150057Y-57261904D01*
X79150057Y-57261904D02*
X79245295Y-57214285D01*
X79245295Y-57214285D02*
X79435771Y-57166666D01*
X79435771Y-57166666D02*
X79673866Y-57166666D01*
X79673866Y-57166666D02*
X79864342Y-57214285D01*
X79864342Y-57214285D02*
X79959580Y-57261904D01*
X79959580Y-57261904D02*
X80007200Y-57309523D01*
X80007200Y-57309523D02*
X80054819Y-57404761D01*
X80054819Y-57404761D02*
X80054819Y-57499999D01*
X80054819Y-57499999D02*
X80007200Y-57595237D01*
X80007200Y-57595237D02*
X79959580Y-57642856D01*
X79959580Y-57642856D02*
X79864342Y-57690475D01*
X79864342Y-57690475D02*
X79673866Y-57738094D01*
X79673866Y-57738094D02*
X79435771Y-57738094D01*
X79435771Y-57738094D02*
X79245295Y-57690475D01*
X79245295Y-57690475D02*
X79150057Y-57642856D01*
X79150057Y-57642856D02*
X79102438Y-57595237D01*
X79102438Y-57595237D02*
X79054819Y-57499999D01*
X79959580Y-56738094D02*
X80007200Y-56690475D01*
X80007200Y-56690475D02*
X80054819Y-56738094D01*
X80054819Y-56738094D02*
X80007200Y-56785713D01*
X80007200Y-56785713D02*
X79959580Y-56738094D01*
X79959580Y-56738094D02*
X80054819Y-56738094D01*
X79388152Y-55833333D02*
X80054819Y-55833333D01*
X79007200Y-56071428D02*
X79721485Y-56309523D01*
X79721485Y-56309523D02*
X79721485Y-55690476D01*
X80054819Y-54785714D02*
X80054819Y-55357142D01*
X80054819Y-55071428D02*
X79054819Y-55071428D01*
X79054819Y-55071428D02*
X79197676Y-55166666D01*
X79197676Y-55166666D02*
X79292914Y-55261904D01*
X79292914Y-55261904D02*
X79340533Y-55357142D01*
X70429819Y-60314285D02*
X69429819Y-60314285D01*
X70429819Y-59742857D02*
X69858390Y-60171428D01*
X69429819Y-59742857D02*
X70001247Y-60314285D01*
X69525057Y-59361904D02*
X69477438Y-59314285D01*
X69477438Y-59314285D02*
X69429819Y-59219047D01*
X69429819Y-59219047D02*
X69429819Y-58980952D01*
X69429819Y-58980952D02*
X69477438Y-58885714D01*
X69477438Y-58885714D02*
X69525057Y-58838095D01*
X69525057Y-58838095D02*
X69620295Y-58790476D01*
X69620295Y-58790476D02*
X69715533Y-58790476D01*
X69715533Y-58790476D02*
X69858390Y-58838095D01*
X69858390Y-58838095D02*
X70429819Y-59409523D01*
X70429819Y-59409523D02*
X70429819Y-58790476D01*
X70429819Y-57838095D02*
X70429819Y-58409523D01*
X70429819Y-58123809D02*
X69429819Y-58123809D01*
X69429819Y-58123809D02*
X69572676Y-58219047D01*
X69572676Y-58219047D02*
X69667914Y-58314285D01*
X69667914Y-58314285D02*
X69715533Y-58409523D01*
X82811904Y-88354819D02*
X82811904Y-89069104D01*
X82811904Y-89069104D02*
X82764285Y-89211961D01*
X82764285Y-89211961D02*
X82669047Y-89307200D01*
X82669047Y-89307200D02*
X82526190Y-89354819D01*
X82526190Y-89354819D02*
X82430952Y-89354819D01*
X83240476Y-89307200D02*
X83383333Y-89354819D01*
X83383333Y-89354819D02*
X83621428Y-89354819D01*
X83621428Y-89354819D02*
X83716666Y-89307200D01*
X83716666Y-89307200D02*
X83764285Y-89259580D01*
X83764285Y-89259580D02*
X83811904Y-89164342D01*
X83811904Y-89164342D02*
X83811904Y-89069104D01*
X83811904Y-89069104D02*
X83764285Y-88973866D01*
X83764285Y-88973866D02*
X83716666Y-88926247D01*
X83716666Y-88926247D02*
X83621428Y-88878628D01*
X83621428Y-88878628D02*
X83430952Y-88831009D01*
X83430952Y-88831009D02*
X83335714Y-88783390D01*
X83335714Y-88783390D02*
X83288095Y-88735771D01*
X83288095Y-88735771D02*
X83240476Y-88640533D01*
X83240476Y-88640533D02*
X83240476Y-88545295D01*
X83240476Y-88545295D02*
X83288095Y-88450057D01*
X83288095Y-88450057D02*
X83335714Y-88402438D01*
X83335714Y-88402438D02*
X83430952Y-88354819D01*
X83430952Y-88354819D02*
X83669047Y-88354819D01*
X83669047Y-88354819D02*
X83811904Y-88402438D01*
X84097619Y-88354819D02*
X84669047Y-88354819D01*
X84383333Y-89354819D02*
X84383333Y-88354819D01*
X84764286Y-89450057D02*
X85526190Y-89450057D01*
X86097619Y-88831009D02*
X86240476Y-88878628D01*
X86240476Y-88878628D02*
X86288095Y-88926247D01*
X86288095Y-88926247D02*
X86335714Y-89021485D01*
X86335714Y-89021485D02*
X86335714Y-89164342D01*
X86335714Y-89164342D02*
X86288095Y-89259580D01*
X86288095Y-89259580D02*
X86240476Y-89307200D01*
X86240476Y-89307200D02*
X86145238Y-89354819D01*
X86145238Y-89354819D02*
X85764286Y-89354819D01*
X85764286Y-89354819D02*
X85764286Y-88354819D01*
X85764286Y-88354819D02*
X86097619Y-88354819D01*
X86097619Y-88354819D02*
X86192857Y-88402438D01*
X86192857Y-88402438D02*
X86240476Y-88450057D01*
X86240476Y-88450057D02*
X86288095Y-88545295D01*
X86288095Y-88545295D02*
X86288095Y-88640533D01*
X86288095Y-88640533D02*
X86240476Y-88735771D01*
X86240476Y-88735771D02*
X86192857Y-88783390D01*
X86192857Y-88783390D02*
X86097619Y-88831009D01*
X86097619Y-88831009D02*
X85764286Y-88831009D01*
X87192857Y-88688152D02*
X87192857Y-89354819D01*
X86954762Y-88307200D02*
X86716667Y-89021485D01*
X86716667Y-89021485D02*
X87335714Y-89021485D01*
X88050000Y-88831009D02*
X88192857Y-88878628D01*
X88192857Y-88878628D02*
X88240476Y-88926247D01*
X88240476Y-88926247D02*
X88288095Y-89021485D01*
X88288095Y-89021485D02*
X88288095Y-89164342D01*
X88288095Y-89164342D02*
X88240476Y-89259580D01*
X88240476Y-89259580D02*
X88192857Y-89307200D01*
X88192857Y-89307200D02*
X88097619Y-89354819D01*
X88097619Y-89354819D02*
X87716667Y-89354819D01*
X87716667Y-89354819D02*
X87716667Y-88354819D01*
X87716667Y-88354819D02*
X88050000Y-88354819D01*
X88050000Y-88354819D02*
X88145238Y-88402438D01*
X88145238Y-88402438D02*
X88192857Y-88450057D01*
X88192857Y-88450057D02*
X88240476Y-88545295D01*
X88240476Y-88545295D02*
X88240476Y-88640533D01*
X88240476Y-88640533D02*
X88192857Y-88735771D01*
X88192857Y-88735771D02*
X88145238Y-88783390D01*
X88145238Y-88783390D02*
X88050000Y-88831009D01*
X88050000Y-88831009D02*
X87716667Y-88831009D01*
X88716667Y-88973866D02*
X89478572Y-88973866D01*
X89859524Y-88354819D02*
X90526190Y-89354819D01*
X90526190Y-88354819D02*
X89859524Y-89354819D01*
X90907143Y-89354819D02*
X90907143Y-88354819D01*
X90907143Y-88831009D02*
X91478571Y-88831009D01*
X91478571Y-89354819D02*
X91478571Y-88354819D01*
X91954762Y-88973866D02*
X92716667Y-88973866D01*
X93145238Y-89069104D02*
X93621428Y-89069104D01*
X93050000Y-89354819D02*
X93383333Y-88354819D01*
X93383333Y-88354819D02*
X93716666Y-89354819D01*
X87240476Y-86454819D02*
X87240476Y-87169104D01*
X87240476Y-87169104D02*
X87192857Y-87311961D01*
X87192857Y-87311961D02*
X87097619Y-87407200D01*
X87097619Y-87407200D02*
X86954762Y-87454819D01*
X86954762Y-87454819D02*
X86859524Y-87454819D01*
X88240476Y-87454819D02*
X87669048Y-87454819D01*
X87954762Y-87454819D02*
X87954762Y-86454819D01*
X87954762Y-86454819D02*
X87859524Y-86597676D01*
X87859524Y-86597676D02*
X87764286Y-86692914D01*
X87764286Y-86692914D02*
X87669048Y-86740533D01*
X88859524Y-86454819D02*
X88954762Y-86454819D01*
X88954762Y-86454819D02*
X89050000Y-86502438D01*
X89050000Y-86502438D02*
X89097619Y-86550057D01*
X89097619Y-86550057D02*
X89145238Y-86645295D01*
X89145238Y-86645295D02*
X89192857Y-86835771D01*
X89192857Y-86835771D02*
X89192857Y-87073866D01*
X89192857Y-87073866D02*
X89145238Y-87264342D01*
X89145238Y-87264342D02*
X89097619Y-87359580D01*
X89097619Y-87359580D02*
X89050000Y-87407200D01*
X89050000Y-87407200D02*
X88954762Y-87454819D01*
X88954762Y-87454819D02*
X88859524Y-87454819D01*
X88859524Y-87454819D02*
X88764286Y-87407200D01*
X88764286Y-87407200D02*
X88716667Y-87359580D01*
X88716667Y-87359580D02*
X88669048Y-87264342D01*
X88669048Y-87264342D02*
X88621429Y-87073866D01*
X88621429Y-87073866D02*
X88621429Y-86835771D01*
X88621429Y-86835771D02*
X88669048Y-86645295D01*
X88669048Y-86645295D02*
X88716667Y-86550057D01*
X88716667Y-86550057D02*
X88764286Y-86502438D01*
X88764286Y-86502438D02*
X88859524Y-86454819D01*
X139333333Y-77954819D02*
X139999999Y-78954819D01*
X139999999Y-77954819D02*
X139333333Y-78954819D01*
X140238095Y-77954819D02*
X140809523Y-77954819D01*
X140523809Y-78954819D02*
X140523809Y-77954819D01*
X141047619Y-77954819D02*
X141666666Y-77954819D01*
X141666666Y-77954819D02*
X141333333Y-78335771D01*
X141333333Y-78335771D02*
X141476190Y-78335771D01*
X141476190Y-78335771D02*
X141571428Y-78383390D01*
X141571428Y-78383390D02*
X141619047Y-78431009D01*
X141619047Y-78431009D02*
X141666666Y-78526247D01*
X141666666Y-78526247D02*
X141666666Y-78764342D01*
X141666666Y-78764342D02*
X141619047Y-78859580D01*
X141619047Y-78859580D02*
X141571428Y-78907200D01*
X141571428Y-78907200D02*
X141476190Y-78954819D01*
X141476190Y-78954819D02*
X141190476Y-78954819D01*
X141190476Y-78954819D02*
X141095238Y-78907200D01*
X141095238Y-78907200D02*
X141047619Y-78859580D01*
X142285714Y-77954819D02*
X142380952Y-77954819D01*
X142380952Y-77954819D02*
X142476190Y-78002438D01*
X142476190Y-78002438D02*
X142523809Y-78050057D01*
X142523809Y-78050057D02*
X142571428Y-78145295D01*
X142571428Y-78145295D02*
X142619047Y-78335771D01*
X142619047Y-78335771D02*
X142619047Y-78573866D01*
X142619047Y-78573866D02*
X142571428Y-78764342D01*
X142571428Y-78764342D02*
X142523809Y-78859580D01*
X142523809Y-78859580D02*
X142476190Y-78907200D01*
X142476190Y-78907200D02*
X142380952Y-78954819D01*
X142380952Y-78954819D02*
X142285714Y-78954819D01*
X142285714Y-78954819D02*
X142190476Y-78907200D01*
X142190476Y-78907200D02*
X142142857Y-78859580D01*
X142142857Y-78859580D02*
X142095238Y-78764342D01*
X142095238Y-78764342D02*
X142047619Y-78573866D01*
X142047619Y-78573866D02*
X142047619Y-78335771D01*
X142047619Y-78335771D02*
X142095238Y-78145295D01*
X142095238Y-78145295D02*
X142142857Y-78050057D01*
X142142857Y-78050057D02*
X142190476Y-78002438D01*
X142190476Y-78002438D02*
X142285714Y-77954819D01*
X140190476Y-81954819D02*
X140190476Y-82669104D01*
X140190476Y-82669104D02*
X140142857Y-82811961D01*
X140142857Y-82811961D02*
X140047619Y-82907200D01*
X140047619Y-82907200D02*
X139904762Y-82954819D01*
X139904762Y-82954819D02*
X139809524Y-82954819D01*
X141190476Y-82954819D02*
X140619048Y-82954819D01*
X140904762Y-82954819D02*
X140904762Y-81954819D01*
X140904762Y-81954819D02*
X140809524Y-82097676D01*
X140809524Y-82097676D02*
X140714286Y-82192914D01*
X140714286Y-82192914D02*
X140619048Y-82240533D01*
X141571429Y-82050057D02*
X141619048Y-82002438D01*
X141619048Y-82002438D02*
X141714286Y-81954819D01*
X141714286Y-81954819D02*
X141952381Y-81954819D01*
X141952381Y-81954819D02*
X142047619Y-82002438D01*
X142047619Y-82002438D02*
X142095238Y-82050057D01*
X142095238Y-82050057D02*
X142142857Y-82145295D01*
X142142857Y-82145295D02*
X142142857Y-82240533D01*
X142142857Y-82240533D02*
X142095238Y-82383390D01*
X142095238Y-82383390D02*
X141523810Y-82954819D01*
X141523810Y-82954819D02*
X142142857Y-82954819D01*
X140833333Y-75300057D02*
X140880952Y-75252438D01*
X140880952Y-75252438D02*
X140976190Y-75204819D01*
X140976190Y-75204819D02*
X141214285Y-75204819D01*
X141214285Y-75204819D02*
X141309523Y-75252438D01*
X141309523Y-75252438D02*
X141357142Y-75300057D01*
X141357142Y-75300057D02*
X141404761Y-75395295D01*
X141404761Y-75395295D02*
X141404761Y-75490533D01*
X141404761Y-75490533D02*
X141357142Y-75633390D01*
X141357142Y-75633390D02*
X140785714Y-76204819D01*
X140785714Y-76204819D02*
X141404761Y-76204819D01*
X141785714Y-75300057D02*
X141833333Y-75252438D01*
X141833333Y-75252438D02*
X141928571Y-75204819D01*
X141928571Y-75204819D02*
X142166666Y-75204819D01*
X142166666Y-75204819D02*
X142261904Y-75252438D01*
X142261904Y-75252438D02*
X142309523Y-75300057D01*
X142309523Y-75300057D02*
X142357142Y-75395295D01*
X142357142Y-75395295D02*
X142357142Y-75490533D01*
X142357142Y-75490533D02*
X142309523Y-75633390D01*
X142309523Y-75633390D02*
X141738095Y-76204819D01*
X141738095Y-76204819D02*
X142357142Y-76204819D01*
X142976190Y-75204819D02*
X143071428Y-75204819D01*
X143071428Y-75204819D02*
X143166666Y-75252438D01*
X143166666Y-75252438D02*
X143214285Y-75300057D01*
X143214285Y-75300057D02*
X143261904Y-75395295D01*
X143261904Y-75395295D02*
X143309523Y-75585771D01*
X143309523Y-75585771D02*
X143309523Y-75823866D01*
X143309523Y-75823866D02*
X143261904Y-76014342D01*
X143261904Y-76014342D02*
X143214285Y-76109580D01*
X143214285Y-76109580D02*
X143166666Y-76157200D01*
X143166666Y-76157200D02*
X143071428Y-76204819D01*
X143071428Y-76204819D02*
X142976190Y-76204819D01*
X142976190Y-76204819D02*
X142880952Y-76157200D01*
X142880952Y-76157200D02*
X142833333Y-76109580D01*
X142833333Y-76109580D02*
X142785714Y-76014342D01*
X142785714Y-76014342D02*
X142738095Y-75823866D01*
X142738095Y-75823866D02*
X142738095Y-75585771D01*
X142738095Y-75585771D02*
X142785714Y-75395295D01*
X142785714Y-75395295D02*
X142833333Y-75300057D01*
X142833333Y-75300057D02*
X142880952Y-75252438D01*
X142880952Y-75252438D02*
X142976190Y-75204819D01*
X143928571Y-75204819D02*
X144023809Y-75204819D01*
X144023809Y-75204819D02*
X144119047Y-75252438D01*
X144119047Y-75252438D02*
X144166666Y-75300057D01*
X144166666Y-75300057D02*
X144214285Y-75395295D01*
X144214285Y-75395295D02*
X144261904Y-75585771D01*
X144261904Y-75585771D02*
X144261904Y-75823866D01*
X144261904Y-75823866D02*
X144214285Y-76014342D01*
X144214285Y-76014342D02*
X144166666Y-76109580D01*
X144166666Y-76109580D02*
X144119047Y-76157200D01*
X144119047Y-76157200D02*
X144023809Y-76204819D01*
X144023809Y-76204819D02*
X143928571Y-76204819D01*
X143928571Y-76204819D02*
X143833333Y-76157200D01*
X143833333Y-76157200D02*
X143785714Y-76109580D01*
X143785714Y-76109580D02*
X143738095Y-76014342D01*
X143738095Y-76014342D02*
X143690476Y-75823866D01*
X143690476Y-75823866D02*
X143690476Y-75585771D01*
X143690476Y-75585771D02*
X143738095Y-75395295D01*
X143738095Y-75395295D02*
X143785714Y-75300057D01*
X143785714Y-75300057D02*
X143833333Y-75252438D01*
X143833333Y-75252438D02*
X143928571Y-75204819D01*
X145119047Y-75538152D02*
X145119047Y-76204819D01*
X144690476Y-75538152D02*
X144690476Y-76061961D01*
X144690476Y-76061961D02*
X144738095Y-76157200D01*
X144738095Y-76157200D02*
X144833333Y-76204819D01*
X144833333Y-76204819D02*
X144976190Y-76204819D01*
X144976190Y-76204819D02*
X145071428Y-76157200D01*
X145071428Y-76157200D02*
X145119047Y-76109580D01*
X142357142Y-63859580D02*
X142309523Y-63907200D01*
X142309523Y-63907200D02*
X142166666Y-63954819D01*
X142166666Y-63954819D02*
X142071428Y-63954819D01*
X142071428Y-63954819D02*
X141928571Y-63907200D01*
X141928571Y-63907200D02*
X141833333Y-63811961D01*
X141833333Y-63811961D02*
X141785714Y-63716723D01*
X141785714Y-63716723D02*
X141738095Y-63526247D01*
X141738095Y-63526247D02*
X141738095Y-63383390D01*
X141738095Y-63383390D02*
X141785714Y-63192914D01*
X141785714Y-63192914D02*
X141833333Y-63097676D01*
X141833333Y-63097676D02*
X141928571Y-63002438D01*
X141928571Y-63002438D02*
X142071428Y-62954819D01*
X142071428Y-62954819D02*
X142166666Y-62954819D01*
X142166666Y-62954819D02*
X142309523Y-63002438D01*
X142309523Y-63002438D02*
X142357142Y-63050057D01*
X142690476Y-62954819D02*
X143309523Y-62954819D01*
X143309523Y-62954819D02*
X142976190Y-63335771D01*
X142976190Y-63335771D02*
X143119047Y-63335771D01*
X143119047Y-63335771D02*
X143214285Y-63383390D01*
X143214285Y-63383390D02*
X143261904Y-63431009D01*
X143261904Y-63431009D02*
X143309523Y-63526247D01*
X143309523Y-63526247D02*
X143309523Y-63764342D01*
X143309523Y-63764342D02*
X143261904Y-63859580D01*
X143261904Y-63859580D02*
X143214285Y-63907200D01*
X143214285Y-63907200D02*
X143119047Y-63954819D01*
X143119047Y-63954819D02*
X142833333Y-63954819D01*
X142833333Y-63954819D02*
X142738095Y-63907200D01*
X142738095Y-63907200D02*
X142690476Y-63859580D01*
X143928571Y-62954819D02*
X144023809Y-62954819D01*
X144023809Y-62954819D02*
X144119047Y-63002438D01*
X144119047Y-63002438D02*
X144166666Y-63050057D01*
X144166666Y-63050057D02*
X144214285Y-63145295D01*
X144214285Y-63145295D02*
X144261904Y-63335771D01*
X144261904Y-63335771D02*
X144261904Y-63573866D01*
X144261904Y-63573866D02*
X144214285Y-63764342D01*
X144214285Y-63764342D02*
X144166666Y-63859580D01*
X144166666Y-63859580D02*
X144119047Y-63907200D01*
X144119047Y-63907200D02*
X144023809Y-63954819D01*
X144023809Y-63954819D02*
X143928571Y-63954819D01*
X143928571Y-63954819D02*
X143833333Y-63907200D01*
X143833333Y-63907200D02*
X143785714Y-63859580D01*
X143785714Y-63859580D02*
X143738095Y-63764342D01*
X143738095Y-63764342D02*
X143690476Y-63573866D01*
X143690476Y-63573866D02*
X143690476Y-63335771D01*
X143690476Y-63335771D02*
X143738095Y-63145295D01*
X143738095Y-63145295D02*
X143785714Y-63050057D01*
X143785714Y-63050057D02*
X143833333Y-63002438D01*
X143833333Y-63002438D02*
X143928571Y-62954819D01*
X118676190Y-85324819D02*
X118771428Y-85324819D01*
X118771428Y-85324819D02*
X118866666Y-85372438D01*
X118866666Y-85372438D02*
X118914285Y-85420057D01*
X118914285Y-85420057D02*
X118961904Y-85515295D01*
X118961904Y-85515295D02*
X119009523Y-85705771D01*
X119009523Y-85705771D02*
X119009523Y-85943866D01*
X119009523Y-85943866D02*
X118961904Y-86134342D01*
X118961904Y-86134342D02*
X118914285Y-86229580D01*
X118914285Y-86229580D02*
X118866666Y-86277200D01*
X118866666Y-86277200D02*
X118771428Y-86324819D01*
X118771428Y-86324819D02*
X118676190Y-86324819D01*
X118676190Y-86324819D02*
X118580952Y-86277200D01*
X118580952Y-86277200D02*
X118533333Y-86229580D01*
X118533333Y-86229580D02*
X118485714Y-86134342D01*
X118485714Y-86134342D02*
X118438095Y-85943866D01*
X118438095Y-85943866D02*
X118438095Y-85705771D01*
X118438095Y-85705771D02*
X118485714Y-85515295D01*
X118485714Y-85515295D02*
X118533333Y-85420057D01*
X118533333Y-85420057D02*
X118580952Y-85372438D01*
X118580952Y-85372438D02*
X118676190Y-85324819D01*
X120009523Y-86324819D02*
X119676190Y-85848628D01*
X119438095Y-86324819D02*
X119438095Y-85324819D01*
X119438095Y-85324819D02*
X119819047Y-85324819D01*
X119819047Y-85324819D02*
X119914285Y-85372438D01*
X119914285Y-85372438D02*
X119961904Y-85420057D01*
X119961904Y-85420057D02*
X120009523Y-85515295D01*
X120009523Y-85515295D02*
X120009523Y-85658152D01*
X120009523Y-85658152D02*
X119961904Y-85753390D01*
X119961904Y-85753390D02*
X119914285Y-85801009D01*
X119914285Y-85801009D02*
X119819047Y-85848628D01*
X119819047Y-85848628D02*
X119438095Y-85848628D01*
X120390476Y-85420057D02*
X120438095Y-85372438D01*
X120438095Y-85372438D02*
X120533333Y-85324819D01*
X120533333Y-85324819D02*
X120771428Y-85324819D01*
X120771428Y-85324819D02*
X120866666Y-85372438D01*
X120866666Y-85372438D02*
X120914285Y-85420057D01*
X120914285Y-85420057D02*
X120961904Y-85515295D01*
X120961904Y-85515295D02*
X120961904Y-85610533D01*
X120961904Y-85610533D02*
X120914285Y-85753390D01*
X120914285Y-85753390D02*
X120342857Y-86324819D01*
X120342857Y-86324819D02*
X120961904Y-86324819D01*
X119057142Y-82954819D02*
X118723809Y-82478628D01*
X118485714Y-82954819D02*
X118485714Y-81954819D01*
X118485714Y-81954819D02*
X118866666Y-81954819D01*
X118866666Y-81954819D02*
X118961904Y-82002438D01*
X118961904Y-82002438D02*
X119009523Y-82050057D01*
X119009523Y-82050057D02*
X119057142Y-82145295D01*
X119057142Y-82145295D02*
X119057142Y-82288152D01*
X119057142Y-82288152D02*
X119009523Y-82383390D01*
X119009523Y-82383390D02*
X118961904Y-82431009D01*
X118961904Y-82431009D02*
X118866666Y-82478628D01*
X118866666Y-82478628D02*
X118485714Y-82478628D01*
X119914285Y-82288152D02*
X119914285Y-82954819D01*
X119676190Y-81907200D02*
X119438095Y-82621485D01*
X119438095Y-82621485D02*
X120057142Y-82621485D01*
X120961904Y-82954819D02*
X120390476Y-82954819D01*
X120676190Y-82954819D02*
X120676190Y-81954819D01*
X120676190Y-81954819D02*
X120580952Y-82097676D01*
X120580952Y-82097676D02*
X120485714Y-82192914D01*
X120485714Y-82192914D02*
X120390476Y-82240533D01*
X61798690Y-88304819D02*
X61798690Y-89019104D01*
X61798690Y-89019104D02*
X61751071Y-89161961D01*
X61751071Y-89161961D02*
X61655833Y-89257200D01*
X61655833Y-89257200D02*
X61512976Y-89304819D01*
X61512976Y-89304819D02*
X61417738Y-89304819D01*
X62227262Y-89257200D02*
X62370119Y-89304819D01*
X62370119Y-89304819D02*
X62608214Y-89304819D01*
X62608214Y-89304819D02*
X62703452Y-89257200D01*
X62703452Y-89257200D02*
X62751071Y-89209580D01*
X62751071Y-89209580D02*
X62798690Y-89114342D01*
X62798690Y-89114342D02*
X62798690Y-89019104D01*
X62798690Y-89019104D02*
X62751071Y-88923866D01*
X62751071Y-88923866D02*
X62703452Y-88876247D01*
X62703452Y-88876247D02*
X62608214Y-88828628D01*
X62608214Y-88828628D02*
X62417738Y-88781009D01*
X62417738Y-88781009D02*
X62322500Y-88733390D01*
X62322500Y-88733390D02*
X62274881Y-88685771D01*
X62274881Y-88685771D02*
X62227262Y-88590533D01*
X62227262Y-88590533D02*
X62227262Y-88495295D01*
X62227262Y-88495295D02*
X62274881Y-88400057D01*
X62274881Y-88400057D02*
X62322500Y-88352438D01*
X62322500Y-88352438D02*
X62417738Y-88304819D01*
X62417738Y-88304819D02*
X62655833Y-88304819D01*
X62655833Y-88304819D02*
X62798690Y-88352438D01*
X63084405Y-88304819D02*
X63655833Y-88304819D01*
X63370119Y-89304819D02*
X63370119Y-88304819D01*
X63751072Y-89400057D02*
X64512976Y-89400057D01*
X65084405Y-88781009D02*
X65227262Y-88828628D01*
X65227262Y-88828628D02*
X65274881Y-88876247D01*
X65274881Y-88876247D02*
X65322500Y-88971485D01*
X65322500Y-88971485D02*
X65322500Y-89114342D01*
X65322500Y-89114342D02*
X65274881Y-89209580D01*
X65274881Y-89209580D02*
X65227262Y-89257200D01*
X65227262Y-89257200D02*
X65132024Y-89304819D01*
X65132024Y-89304819D02*
X64751072Y-89304819D01*
X64751072Y-89304819D02*
X64751072Y-88304819D01*
X64751072Y-88304819D02*
X65084405Y-88304819D01*
X65084405Y-88304819D02*
X65179643Y-88352438D01*
X65179643Y-88352438D02*
X65227262Y-88400057D01*
X65227262Y-88400057D02*
X65274881Y-88495295D01*
X65274881Y-88495295D02*
X65274881Y-88590533D01*
X65274881Y-88590533D02*
X65227262Y-88685771D01*
X65227262Y-88685771D02*
X65179643Y-88733390D01*
X65179643Y-88733390D02*
X65084405Y-88781009D01*
X65084405Y-88781009D02*
X64751072Y-88781009D01*
X66179643Y-88638152D02*
X66179643Y-89304819D01*
X65941548Y-88257200D02*
X65703453Y-88971485D01*
X65703453Y-88971485D02*
X66322500Y-88971485D01*
X66703453Y-89304819D02*
X66703453Y-88304819D01*
X66703453Y-88304819D02*
X67084405Y-88304819D01*
X67084405Y-88304819D02*
X67179643Y-88352438D01*
X67179643Y-88352438D02*
X67227262Y-88400057D01*
X67227262Y-88400057D02*
X67274881Y-88495295D01*
X67274881Y-88495295D02*
X67274881Y-88638152D01*
X67274881Y-88638152D02*
X67227262Y-88733390D01*
X67227262Y-88733390D02*
X67179643Y-88781009D01*
X67179643Y-88781009D02*
X67084405Y-88828628D01*
X67084405Y-88828628D02*
X66703453Y-88828628D01*
X67703453Y-88923866D02*
X68465358Y-88923866D01*
X68798691Y-88304819D02*
X69132024Y-89304819D01*
X69132024Y-89304819D02*
X69465357Y-88304819D01*
X69798691Y-89304819D02*
X69798691Y-88304819D01*
X69798691Y-88781009D02*
X70370119Y-88781009D01*
X70370119Y-89304819D02*
X70370119Y-88304819D01*
X65512976Y-86404819D02*
X65512976Y-87119104D01*
X65512976Y-87119104D02*
X65465357Y-87261961D01*
X65465357Y-87261961D02*
X65370119Y-87357200D01*
X65370119Y-87357200D02*
X65227262Y-87404819D01*
X65227262Y-87404819D02*
X65132024Y-87404819D01*
X66512976Y-87404819D02*
X65941548Y-87404819D01*
X66227262Y-87404819D02*
X66227262Y-86404819D01*
X66227262Y-86404819D02*
X66132024Y-86547676D01*
X66132024Y-86547676D02*
X66036786Y-86642914D01*
X66036786Y-86642914D02*
X65941548Y-86690533D01*
X67465357Y-87404819D02*
X66893929Y-87404819D01*
X67179643Y-87404819D02*
X67179643Y-86404819D01*
X67179643Y-86404819D02*
X67084405Y-86547676D01*
X67084405Y-86547676D02*
X66989167Y-86642914D01*
X66989167Y-86642914D02*
X66893929Y-86690533D01*
D11*
%TO.C,R40*%
X112080000Y-90500000D02*
X113750000Y-90500000D01*
X113750000Y-88250000D02*
X113750000Y-92750000D01*
X113750000Y-92750000D02*
X125650000Y-92750000D01*
X125650000Y-88250000D02*
X113750000Y-88250000D01*
X125650000Y-92750000D02*
X125650000Y-88250000D01*
X127320000Y-90500000D02*
X125650000Y-90500000D01*
%TO.C,C31*%
X133380694Y-35472500D02*
X135580694Y-35472500D01*
X134480694Y-34372500D02*
X134480694Y-36572500D01*
X153842169Y-40300000D02*
G75*
G02*
X131842169Y-40300000I-11000000J0D01*
G01*
X131842169Y-40300000D02*
G75*
G02*
X153842169Y-40300000I11000000J0D01*
G01*
%TO.C,K20*%
X62450000Y-30900000D02*
X81450000Y-30900000D01*
X62450000Y-46100000D02*
X62450000Y-30900000D01*
X81450000Y-30900000D02*
X81450000Y-46100000D01*
X81450000Y-46100000D02*
X62450000Y-46100000D01*
%TO.C,K21*%
X62400000Y-50600000D02*
X77600000Y-50600000D01*
X62400000Y-69600000D02*
X62400000Y-50600000D01*
X77600000Y-50600000D02*
X77600000Y-69600000D01*
X77600000Y-69600000D02*
X62400000Y-69600000D01*
%TO.C,J10*%
X81850000Y-81950000D02*
X81850000Y-87700000D01*
X81850000Y-87700000D02*
X94250000Y-87700000D01*
X83675000Y-81950000D02*
X84300000Y-82950000D01*
X84300000Y-82950000D02*
X84925000Y-81950000D01*
X94250000Y-81950000D02*
X81850000Y-81950000D01*
X94250000Y-87700000D02*
X94250000Y-81950000D01*
%TO.C,J12*%
X135900000Y-85100000D02*
X135900000Y-79900000D01*
X144400000Y-79900000D02*
X135900000Y-79900000D01*
X144400000Y-85100000D02*
X135900000Y-85100000D01*
X146100000Y-81200000D02*
X144400000Y-79900000D01*
X146100000Y-83800000D02*
X144400000Y-85100000D01*
X146100000Y-83800000D02*
X146100000Y-81200000D01*
%TO.C,C30*%
X133538525Y-58672500D02*
X135738525Y-58672500D01*
X134638525Y-57572500D02*
X134638525Y-59772500D01*
X154000000Y-63500000D02*
G75*
G02*
X132000000Y-63500000I-11000000J0D01*
G01*
X132000000Y-63500000D02*
G75*
G02*
X154000000Y-63500000I11000000J0D01*
G01*
%TO.C,R41*%
X112080000Y-82500000D02*
X113750000Y-82500000D01*
X113750000Y-80250000D02*
X113750000Y-84750000D01*
X113750000Y-84750000D02*
X125650000Y-84750000D01*
X125650000Y-80250000D02*
X113750000Y-80250000D01*
X125650000Y-84750000D02*
X125650000Y-80250000D01*
X127320000Y-82500000D02*
X125650000Y-82500000D01*
%TO.C,J11*%
X58432500Y-80850000D02*
X58432500Y-87650000D01*
X58432500Y-81850000D02*
X59432500Y-82850000D01*
X58432500Y-83850000D02*
X59432500Y-82850000D01*
X58432500Y-87650000D02*
X74212500Y-87650000D01*
X59632500Y-79150000D02*
X73012500Y-79150000D01*
X59632500Y-80850000D02*
X59632500Y-79150000D01*
X73012500Y-79150000D02*
X73012500Y-80850000D01*
X74212500Y-80850000D02*
X58432500Y-80850000D01*
X74212500Y-87650000D02*
X74212500Y-80850000D01*
%TD*%
M02*
