<?xml version="1.0" encoding="UTF-8"?>
<svg xmlns="http://www.w3.org/2000/svg" xmlns:xlink="http://www.w3.org/1999/xlink" width="298pt" height="235pt" viewBox="0 0 298 235" version="1.1">
<g id="surface1">
<path style="fill:none;stroke-width:0.00393701;stroke-linecap:round;stroke-linejoin:miter;stroke:rgb(0%,0%,0%);stroke-opacity:1;stroke-miterlimit:10;" d="M 6.141751 -3.799218 C 6.141751 -3.842675 6.106486 -3.87794 6.062975 -3.87794 " transform="matrix(72,0,0,-72,-151.502924,-49.961645)"/>
<path style="fill:none;stroke-width:0.00393701;stroke-linecap:round;stroke-linejoin:miter;stroke:rgb(0%,0%,0%);stroke-opacity:1;stroke-miterlimit:10;" d="M 6.062975 -0.767696 C 6.106486 -0.767696 6.141751 -0.802961 6.141751 -0.846473 " transform="matrix(72,0,0,-72,-151.502924,-49.961645)"/>
<path style="fill:none;stroke-width:0.00393701;stroke-linecap:round;stroke-linejoin:miter;stroke:rgb(0%,0%,0%);stroke-opacity:1;stroke-miterlimit:10;" d="M 5.436998 -0.984276 C 5.436998 -1.068261 5.311022 -1.068261 5.311022 -0.984276 " transform="matrix(72,0,0,-72,-151.502924,-49.961645)"/>
<path style="fill:none;stroke-width:0.00393701;stroke-linecap:round;stroke-linejoin:miter;stroke:rgb(0%,0%,0%);stroke-opacity:1;stroke-miterlimit:10;" d="M 5.311022 -0.984276 C 5.311022 -0.900238 5.436998 -0.900238 5.436998 -0.984276 " transform="matrix(72,0,0,-72,-151.502924,-49.961645)"/>
<path style="fill:none;stroke-width:0.00393701;stroke-linecap:round;stroke-linejoin:miter;stroke:rgb(0%,0%,0%);stroke-opacity:1;stroke-miterlimit:10;" d="M 6.141751 -0.846473 L 6.141751 -3.799218 " transform="matrix(72,0,0,-72,-151.502924,-49.961645)"/>
<path style="fill:none;stroke-width:0.00393701;stroke-linecap:round;stroke-linejoin:miter;stroke:rgb(0%,0%,0%);stroke-opacity:1;stroke-miterlimit:10;" d="M 2.283461 -0.767696 L 6.062975 -0.767696 " transform="matrix(72,0,0,-72,-151.502924,-49.961645)"/>
<path style="fill:none;stroke-width:0.00393701;stroke-linecap:round;stroke-linejoin:miter;stroke:rgb(0%,0%,0%);stroke-opacity:1;stroke-miterlimit:10;" d="M 3.11419 -3.661414 C 3.11419 -3.745398 2.988213 -3.745398 2.988213 -3.661414 " transform="matrix(72,0,0,-72,-151.502924,-49.961645)"/>
<path style="fill:none;stroke-width:0.00393701;stroke-linecap:round;stroke-linejoin:miter;stroke:rgb(0%,0%,0%);stroke-opacity:1;stroke-miterlimit:10;" d="M 2.988213 -3.661414 C 2.988213 -3.57743 3.11419 -3.57743 3.11419 -3.661414 " transform="matrix(72,0,0,-72,-151.502924,-49.961645)"/>
<path style="fill:none;stroke-width:0.00393701;stroke-linecap:round;stroke-linejoin:miter;stroke:rgb(0%,0%,0%);stroke-opacity:1;stroke-miterlimit:10;" d="M 6.062975 -3.87794 L 2.283461 -3.87794 " transform="matrix(72,0,0,-72,-151.502924,-49.961645)"/>
<path style="fill:none;stroke-width:0.00393701;stroke-linecap:round;stroke-linejoin:miter;stroke:rgb(0%,0%,0%);stroke-opacity:1;stroke-miterlimit:10;" d="M 2.283461 -3.87794 C 2.240004 -3.87794 2.204739 -3.842675 2.204739 -3.799218 " transform="matrix(72,0,0,-72,-151.502924,-49.961645)"/>
<path style="fill:none;stroke-width:0.00393701;stroke-linecap:round;stroke-linejoin:miter;stroke:rgb(0%,0%,0%);stroke-opacity:1;stroke-miterlimit:10;" d="M 2.204739 -3.799218 L 2.204739 -0.846473 " transform="matrix(72,0,0,-72,-151.502924,-49.961645)"/>
<path style="fill:none;stroke-width:0.00393701;stroke-linecap:round;stroke-linejoin:miter;stroke:rgb(0%,0%,0%);stroke-opacity:1;stroke-miterlimit:10;" d="M 5.436998 -3.661414 C 5.436998 -3.745398 5.311022 -3.745398 5.311022 -3.661414 " transform="matrix(72,0,0,-72,-151.502924,-49.961645)"/>
<path style="fill:none;stroke-width:0.00393701;stroke-linecap:round;stroke-linejoin:miter;stroke:rgb(0%,0%,0%);stroke-opacity:1;stroke-miterlimit:10;" d="M 5.311022 -3.661414 C 5.311022 -3.57743 5.436998 -3.57743 5.436998 -3.661414 " transform="matrix(72,0,0,-72,-151.502924,-49.961645)"/>
<path style="fill:none;stroke-width:0.00393701;stroke-linecap:round;stroke-linejoin:miter;stroke:rgb(0%,0%,0%);stroke-opacity:1;stroke-miterlimit:10;" d="M 3.11419 -0.984276 C 3.11419 -1.068261 2.988213 -1.068261 2.988213 -0.984276 " transform="matrix(72,0,0,-72,-151.502924,-49.961645)"/>
<path style="fill:none;stroke-width:0.00393701;stroke-linecap:round;stroke-linejoin:miter;stroke:rgb(0%,0%,0%);stroke-opacity:1;stroke-miterlimit:10;" d="M 2.988213 -0.984276 C 2.988213 -0.900238 3.11419 -0.900238 3.11419 -0.984276 " transform="matrix(72,0,0,-72,-151.502924,-49.961645)"/>
<path style="fill:none;stroke-width:0.00393701;stroke-linecap:round;stroke-linejoin:miter;stroke:rgb(0%,0%,0%);stroke-opacity:1;stroke-miterlimit:10;" d="M 2.204739 -0.846473 C 2.204739 -0.802961 2.240004 -0.767696 2.283461 -0.767696 " transform="matrix(72,0,0,-72,-151.502924,-49.961645)"/>
</g>
</svg>
