<?xml version="1.0" encoding="UTF-8" standalone="no"?>
<svg
   width="298pt"
   height="235pt"
   viewBox="0 0 298 235"
   version="1.1"
   id="svg8"
   sodipodi:docname="NPTH-drl.svg"
   xmlns:inkscape="http://www.inkscape.org/namespaces/inkscape"
   xmlns:sodipodi="http://sodipodi.sourceforge.net/DTD/sodipodi-0.dtd"
   xmlns="http://www.w3.org/2000/svg"
   xmlns:svg="http://www.w3.org/2000/svg">
  <defs
     id="defs8" />
  <sodipodi:namedview
     id="namedview8"
     pagecolor="#ffffff"
     bordercolor="#000000"
     borderopacity="0.25"
     inkscape:showpageshadow="2"
     inkscape:pageopacity="0.0"
     inkscape:pagecheckerboard="0"
     inkscape:deskcolor="#d1d1d1"
     inkscape:document-units="pt" />
  <g
     id="surface1">
    <path
       id="path1"
       style=" stroke:none;fill-rule:evenodd;fill:rgb(0%,0%,0%);fill-opacity:1;"
       d="M 105.14502 23.283691 C 100.89307 23.283691 96.640137 26.118658 96.640137 31.788574 C 96.640137 43.128407 113.64844 43.128407 113.64844 31.788574 C 113.64844 26.118658 109.39697 23.283691 105.14502 23.283691 z M 136.32861 23.283691 C 132.07666 23.283691 127.82373 26.118658 127.82373 31.788574 C 127.82373 43.128407 144.83203 43.128407 144.83203 31.788574 C 144.83203 26.118658 140.58056 23.283691 136.32861 23.283691 z M 167.50781 23.283691 C 163.25586 23.283691 159.00439 26.118658 159.00439 31.788574 C 159.00439 43.128407 176.01123 43.128407 176.01123 31.788574 C 176.01123 26.118658 171.75976 23.283691 167.50781 23.283691 z M 198.68701 23.283691 C 194.43506 23.283691 190.18359 26.118658 190.18359 31.788574 C 190.18359 43.128407 207.19189 43.128407 207.19189 31.788574 C 207.19189 26.118658 202.93896 23.283691 198.68701 23.283691 z M 115.94531 99.253418 C 111.69336 99.253418 107.44189 102.08838 107.44189 107.7583 C 107.44189 119.09813 124.44873 119.09813 124.44873 107.7583 C 124.44873 102.08838 120.19726 99.253418 115.94531 99.253418 z M 187.66406 99.253418 C 183.41211 99.253418 179.16064 102.08838 179.16064 107.7583 C 179.16064 119.09813 196.16748 119.09813 196.16748 107.7583 C 196.16748 102.08838 191.91601 99.253418 187.66406 99.253418 z M 80.34375 122.66748 C 76.800785 122.66748 73.258301 125.02979 73.258301 129.75439 C 73.258301 139.2036 87.429199 139.2036 87.429199 129.75439 C 87.429199 125.02979 83.886715 122.66748 80.34375 122.66748 z M 151.91748 122.66748 C 148.37452 122.66748 144.83203 125.02979 144.83203 129.75439 C 144.83203 139.2036 159.00439 139.2036 159.00439 129.75439 C 159.00439 125.02979 155.46045 122.66748 151.91748 122.66748 z " />
  </g>
</svg>
