<?xml version="1.0" encoding="UTF-8" standalone="no"?>
<svg
   width="298pt"
   height="235pt"
   viewBox="0 0 298 235"
   version="1.1"
   id="svg52"
   sodipodi:docname="PTH-drl.svg"
   xmlns:inkscape="http://www.inkscape.org/namespaces/inkscape"
   xmlns:sodipodi="http://sodipodi.sourceforge.net/DTD/sodipodi-0.dtd"
   xmlns="http://www.w3.org/2000/svg"
   xmlns:svg="http://www.w3.org/2000/svg">
  <defs
     id="defs52" />
  <sodipodi:namedview
     id="namedview52"
     pagecolor="#ffffff"
     bordercolor="#000000"
     borderopacity="0.25"
     inkscape:showpageshadow="2"
     inkscape:pageopacity="0.0"
     inkscape:pagecheckerboard="0"
     inkscape:deskcolor="#d1d1d1"
     inkscape:document-units="pt" />
  <g
     id="surface1">
    <path
       id="path1"
       style=" stroke:none;fill-rule:evenodd;fill:rgb(0%,0%,0%);fill-opacity:1;"
       d="M 35.157715 40.321289 C 34.236817 40.321289 33.316406 40.935548 33.316406 42.164063 C 33.316406 44.621092 37.000488 44.621092 37.000488 42.164063 C 37.000488 40.935548 36.078612 40.321289 35.157715 40.321289 z M 69.739746 40.321289 C 68.818849 40.321289 67.898438 40.935548 67.898438 42.164063 C 67.898438 44.621092 71.58252 44.621092 71.58252 42.164063 C 71.58252 40.935548 70.660643 40.321289 69.739746 40.321289 z M 75.410156 57.32959 C 74.488282 57.32959 73.565918 57.943849 73.565918 59.172363 C 73.565918 61.629392 77.254395 61.629392 77.254395 59.172363 C 77.254395 57.943849 76.33203 57.32959 75.410156 57.32959 z M 239.23096 61.439941 C 237.81299 61.439941 236.39502 62.384279 236.39502 64.272949 C 236.39502 68.054195 242.06689 68.054195 242.06689 64.272949 C 242.06689 62.384279 240.64892 61.439941 239.23096 61.439941 z M 267.57568 61.439941 C 266.15869 61.439941 264.74268 62.384279 264.74268 64.272949 C 264.74268 68.054195 270.41016 68.054195 270.41016 64.272949 C 270.41016 62.384279 268.99267 61.439941 267.57568 61.439941 z M 35.157715 74.336426 C 34.236817 74.336426 33.316406 74.950684 33.316406 76.179199 C 33.316406 78.636228 37.000488 78.636228 37.000488 76.179199 C 37.000488 74.950684 36.078612 74.336426 35.157715 74.336426 z M 69.739746 74.336426 C 68.818849 74.336426 67.898438 74.950684 67.898438 76.179199 C 67.898438 78.636228 71.58252 78.636228 71.58252 76.179199 C 71.58252 74.950684 70.660643 74.336426 69.739746 74.336426 z M 97.945313 77.456543 C 97.166017 77.456543 96.386719 77.976075 96.386719 79.015137 C 96.386719 81.09326 99.503906 81.09326 99.503906 79.015137 C 99.503906 77.976075 98.724608 77.456543 97.945313 77.456543 z M 105.14502 77.456543 C 104.36572 77.456543 103.58643 77.976075 103.58643 79.015137 C 103.58643 81.09326 106.70361 81.09326 106.70361 79.015137 C 106.70361 77.976075 105.92432 77.456543 105.14502 77.456543 z M 112.34619 77.456543 C 111.56592 77.456543 110.78467 77.976075 110.78467 79.015137 C 110.78467 81.09326 113.90625 81.09326 113.90625 79.015137 C 113.90625 77.976075 113.12646 77.456543 112.34619 77.456543 z M 129.12744 77.456543 C 128.34717 77.456543 127.56592 77.976075 127.56592 79.015137 C 127.56592 81.09326 130.6875 81.09326 130.6875 79.015137 C 130.6875 77.976075 129.90771 77.456543 129.12744 77.456543 z M 136.32861 77.456543 C 135.54932 77.456543 134.77002 77.976075 134.77002 79.015137 C 134.77002 81.09326 137.88721 81.09326 137.88721 79.015137 C 137.88721 77.976075 137.10791 77.456543 136.32861 77.456543 z M 143.52686 77.456543 C 142.74756 77.456543 141.96826 77.976075 141.96826 79.015137 C 141.96826 81.09326 145.08545 81.09326 145.08545 79.015137 C 145.08545 77.976075 144.30615 77.456543 143.52686 77.456543 z M 160.30811 77.456543 C 159.52881 77.456543 158.74951 77.976075 158.74951 79.015137 C 158.74951 81.09326 161.8667 81.09326 161.8667 79.015137 C 161.8667 77.976075 161.0874 77.456543 160.30811 77.456543 z M 167.50781 77.456543 C 166.72852 77.456543 165.94922 77.976075 165.94922 79.015137 C 165.94922 81.09326 169.06641 81.09326 169.06641 79.015137 C 169.06641 77.976075 168.28711 77.456543 167.50781 77.456543 z M 174.70752 77.456543 C 173.92822 77.456543 173.14893 77.976075 173.14893 79.015137 C 173.14893 81.09326 176.26611 81.09326 176.26611 79.015137 C 176.26611 77.976075 175.48682 77.456543 174.70752 77.456543 z M 191.48877 77.456543 C 190.70947 77.456543 189.93018 77.976075 189.93018 79.015137 C 189.93018 81.09326 193.04736 81.09326 193.04736 79.015137 C 193.04736 77.976075 192.26807 77.456543 191.48877 77.456543 z M 198.68994 77.456543 C 197.90967 77.456543 197.12842 77.976075 197.12842 79.015137 C 197.12842 81.09326 200.25 81.09326 200.25 79.015137 C 200.25 77.976075 199.47021 77.456543 198.68994 77.456543 z M 205.89111 77.456543 C 205.11182 77.456543 204.33252 77.976075 204.33252 79.015137 C 204.33252 81.09326 207.44971 81.09326 207.44971 79.015137 C 207.44971 77.976075 206.67041 77.456543 205.89111 77.456543 z M 46.921875 95.598633 C 46.000001 95.598633 45.077637 96.212892 45.077637 97.441406 C 45.077637 99.898436 48.766113 99.898436 48.766113 97.441406 C 48.766113 96.212892 47.843749 95.598633 46.921875 95.598633 z M 29.913574 101.26611 C 28.9917 101.26611 28.070801 101.88037 28.070801 103.10889 C 28.070801 105.56592 31.757813 105.56592 31.757813 103.10889 C 31.757813 101.88037 30.835448 101.26611 29.913574 101.26611 z M 63.930176 101.26611 C 63.008302 101.26611 62.085938 101.88037 62.085938 103.10889 C 62.085938 105.56592 65.772949 105.56592 65.772949 103.10889 C 65.772949 101.88037 64.85205 101.26611 63.930176 101.26611 z M 239.67773 127.20264 C 238.26074 127.20264 236.84326 128.14795 236.84326 130.03857 C 236.84326 133.81591 242.51221 133.81591 242.51221 130.03857 C 242.51221 128.14795 241.09473 127.20264 239.67773 127.20264 z M 268.02539 127.20264 C 266.6084 127.20264 265.19092 128.14795 265.19092 130.03857 C 265.19092 133.81591 270.85986 133.81591 270.85986 130.03857 C 270.85986 128.14795 269.44238 127.20264 268.02539 127.20264 z M 29.913574 135.84814 C 28.9917 135.84814 28.070801 136.4624 28.070801 137.69092 C 28.070801 140.14795 31.757813 140.14795 31.757813 137.69092 C 31.757813 136.4624 30.835448 135.84814 29.913574 135.84814 z M 63.930176 135.84814 C 63.008302 135.84814 62.085938 136.4624 62.085938 137.69092 C 62.085938 140.14795 65.772949 140.14795 65.772949 137.69092 C 65.772949 136.4624 64.85205 135.84814 63.930176 135.84814 z M 73.142578 159.80127 C 72.434571 159.80127 71.726074 160.27393 71.726074 161.21924 C 71.726074 163.10986 74.559082 163.10986 74.559082 161.21924 C 74.559082 160.27393 73.850585 159.80127 73.142578 159.80127 z M 80.34375 159.80127 C 79.634766 159.80127 78.925781 160.27393 78.925781 161.21924 C 78.925781 163.10986 81.761719 163.10986 81.761719 161.21924 C 81.761719 160.27393 81.052734 159.80127 80.34375 159.80127 z M 87.543457 159.80127 C 86.834473 159.80127 86.125488 160.27393 86.125488 161.21924 C 86.125488 163.10986 88.961426 163.10986 88.961426 161.21924 C 88.961426 160.27393 88.252441 159.80127 87.543457 159.80127 z M 144.71924 159.80127 C 144.01025 159.80127 143.30127 160.27393 143.30127 161.21924 C 143.30127 163.10986 146.13721 163.10986 146.13721 161.21924 C 146.13721 160.27393 145.42822 159.80127 144.71924 159.80127 z M 151.91748 159.80127 C 151.2085 159.80127 150.49951 160.27393 150.49951 161.21924 C 150.49951 163.10986 153.33545 163.10986 153.33545 161.21924 C 153.33545 160.27393 152.62646 159.80127 151.91748 159.80127 z M 159.11719 159.80127 C 158.4082 159.80127 157.69922 160.27393 157.69922 161.21924 C 157.69922 163.10986 160.53516 163.10986 160.53516 161.21924 C 160.53516 160.27393 159.82617 159.80127 159.11719 159.80127 z M 100.49854 161.92822 C 99.43506 161.92822 98.371582 162.63721 98.371582 164.05518 C 98.371582 166.89111 102.62549 166.89111 102.62549 164.05518 C 102.62549 162.63721 101.56201 161.92822 100.49854 161.92822 z M 115.94531 161.92822 C 114.88281 161.92822 113.81982 162.63721 113.81982 164.05518 C 113.81982 166.89111 118.0708 166.89111 118.0708 164.05518 C 118.0708 162.63721 117.00781 161.92822 115.94531 161.92822 z M 131.39502 161.92822 C 130.33252 161.92822 129.26953 162.63721 129.26953 164.05518 C 129.26953 166.89111 133.51904 166.89111 133.51904 164.05518 C 133.51904 162.63721 132.45752 161.92822 131.39502 161.92822 z M 172.21289 161.92822 C 171.14942 161.92822 170.08594 162.63721 170.08594 164.05518 C 170.08594 166.89111 174.33984 166.89111 174.33984 164.05518 C 174.33984 162.63721 173.27637 161.92822 172.21289 161.92822 z M 187.6626 161.92822 C 186.59912 161.92822 185.53564 162.63721 185.53564 164.05518 C 185.53564 166.89111 189.78955 166.89111 189.78955 164.05518 C 189.78955 162.63721 188.72607 161.92822 187.6626 161.92822 z M 203.11084 161.92822 C 202.04736 161.92822 200.98389 162.63721 200.98389 164.05518 C 200.98389 166.89111 205.23779 166.89111 205.23779 164.05518 C 205.23779 162.63721 204.17432 161.92822 203.11084 161.92822 z M 241.0957 180.06885 C 239.18262 180.06885 237.26953 181.34522 237.26953 183.89795 C 237.26953 188.99951 244.92188 188.99951 244.92188 183.89795 C 244.92188 181.34522 243.00879 180.06885 241.0957 180.06885 z M 255.26807 180.06885 C 253.35498 180.06885 251.44189 181.34522 251.44189 183.89795 C 251.44189 188.99951 259.09424 188.99951 259.09424 183.89795 C 259.09424 181.34522 257.18115 180.06885 255.26807 180.06885 z M 166.20557 182.1958 C 165.35498 182.1958 164.50342 182.76318 164.50342 183.89795 C 164.50342 186.16357 167.90625 186.16357 167.90625 183.89795 C 167.90625 182.76318 167.05615 182.1958 166.20557 182.1958 z M 209.40381 182.1958 C 208.55322 182.1958 207.70313 182.76318 207.70313 183.89795 C 207.70313 186.16357 211.10596 186.16357 211.10596 183.89795 C 211.10596 182.76318 210.25439 182.1958 209.40381 182.1958 z M 19.659668 182.47998 C 18.454591 182.47998 17.25 183.28369 17.25 184.89111 C 17.25 188.10205 22.070801 188.10205 22.070801 184.89111 C 22.070801 183.28369 20.864745 182.47998 19.659668 182.47998 z M 30.884766 182.47998 C 29.680665 182.47998 28.476563 183.28369 28.476563 184.89111 C 28.476563 188.10205 33.292969 188.10205 33.292969 184.89111 C 33.292969 183.28369 32.088866 182.47998 30.884766 182.47998 z M 42.109863 182.47998 C 40.904786 182.47998 39.69873 183.28369 39.69873 184.89111 C 39.69873 188.10205 44.519531 188.10205 44.519531 184.89111 C 44.519531 183.28369 43.31494 182.47998 42.109863 182.47998 z M 53.336426 182.47998 C 52.131349 182.47998 50.925293 183.28369 50.925293 184.89111 C 50.925293 188.10205 55.746094 188.10205 55.746094 184.89111 C 55.746094 183.28369 54.541503 182.47998 53.336426 182.47998 z M 87.457031 187.65234 C 86.783204 187.65234 86.109375 188.10156 86.109375 189 C 86.109375 190.79297 88.804688 190.79297 88.804688 189 C 88.804688 188.10156 88.130859 187.65234 87.457031 187.65234 z M 94.54541 187.65234 C 93.872559 187.65234 93.199219 188.10156 93.199219 189 C 93.199219 190.79297 95.890137 190.79297 95.890137 189 C 95.890137 188.10156 95.218261 187.65234 94.54541 187.65234 z M 101.63086 187.65234 C 100.95801 187.65234 100.28467 188.10156 100.28467 189 C 100.28467 190.79297 102.97705 190.79297 102.97705 189 C 102.97705 188.10156 102.30371 187.65234 101.63086 187.65234 z M 108.71631 187.65234 C 108.04346 187.65234 107.37158 188.10156 107.37158 189 C 107.37158 190.79297 110.0625 190.79297 110.0625 189 C 110.0625 188.10156 109.38916 187.65234 108.71631 187.65234 z M 166.20557 204.87158 C 165.35498 204.87158 164.50342 205.43897 164.50342 206.57373 C 164.50342 208.83935 167.90625 208.83935 167.90625 206.57373 C 167.90625 205.43897 167.05615 204.87158 166.20557 204.87158 z M 209.40381 204.87158 C 208.55322 204.87158 207.70313 205.43897 207.70313 206.57373 C 207.70313 208.83935 211.10596 208.83935 211.10596 206.57373 C 211.10596 205.43897 210.25439 204.87158 209.40381 204.87158 z " />
  </g>
</svg>
