%TF.GenerationSoftware,KiCad,Pcbnew,8.0.7-8.0.7-0~ubuntu22.04.1*%
%TF.CreationDate,2024-12-24T00:34:09+00:00*%
%TF.ProjectId,pcb_power,7063625f-706f-4776-9572-2e6b69636164,1.0.0*%
%TF.SameCoordinates,Original*%
%TF.FileFunction,Other,User*%
%FSLAX46Y46*%
G04 Gerber Fmt 4.6, Leading zero omitted, Abs format (unit mm)*
G04 Created by KiCad (PCBNEW 8.0.7-8.0.7-0~ubuntu22.04.1) date 2024-12-24 00:34:09*
%MOMM*%
%LPD*%
G01*
G04 APERTURE LIST*
%ADD10C,0.050000*%
G04 APERTURE END LIST*
D10*
%TO.C,D21*%
X66500000Y-55250000D02*
X73500000Y-55250000D01*
X66500000Y-58750000D02*
X66500000Y-55250000D01*
X73500000Y-55250000D02*
X73500000Y-58750000D01*
X73500000Y-58750000D02*
X66500000Y-58750000D01*
%TO.C,D30*%
X96290000Y-25790000D02*
X106790000Y-25790000D01*
X96290000Y-46750000D02*
X96290000Y-25790000D01*
X106790000Y-25790000D02*
X106790000Y-46750000D01*
X106790000Y-46750000D02*
X96290000Y-46750000D01*
%TO.C,D32*%
X85290000Y-25790000D02*
X95790000Y-25790000D01*
X85290000Y-46750000D02*
X85290000Y-25790000D01*
X95790000Y-25790000D02*
X95790000Y-46750000D01*
X95790000Y-46750000D02*
X85290000Y-46750000D01*
%TO.C,Q43*%
X102790000Y-59250000D02*
X111290000Y-59250000D01*
X102790000Y-75650000D02*
X102790000Y-59250000D01*
X111290000Y-59250000D02*
X111290000Y-75650000D01*
X111290000Y-75650000D02*
X102790000Y-75650000D01*
%TO.C,D20*%
X73750000Y-35000000D02*
X77250000Y-35000000D01*
X73750000Y-42000000D02*
X73750000Y-35000000D01*
X77250000Y-35000000D02*
X77250000Y-42000000D01*
X77250000Y-42000000D02*
X73750000Y-42000000D01*
%TO.C,Q42*%
X111450000Y-49220000D02*
X127850000Y-49220000D01*
X111450000Y-78000000D02*
X111450000Y-49220000D01*
X127850000Y-49220000D02*
X127850000Y-78000000D01*
X127850000Y-78000000D02*
X111450000Y-78000000D01*
%TO.C,D31*%
X107290000Y-25790000D02*
X117790000Y-25790000D01*
X107290000Y-46750000D02*
X107290000Y-25790000D01*
X117790000Y-25790000D02*
X117790000Y-46750000D01*
X117790000Y-46750000D02*
X107290000Y-46750000D01*
%TO.C,Q40*%
X86150000Y-49220000D02*
X102550000Y-49220000D01*
X86150000Y-78000000D02*
X86150000Y-49220000D01*
X102550000Y-49220000D02*
X102550000Y-78000000D01*
X102550000Y-78000000D02*
X86150000Y-78000000D01*
%TO.C,D33*%
X118290000Y-25790000D02*
X128790000Y-25790000D01*
X118290000Y-46750000D02*
X118290000Y-25790000D01*
X128790000Y-25790000D02*
X128790000Y-46750000D01*
X128790000Y-46750000D02*
X118290000Y-46750000D01*
%TO.C,Q41*%
X77540000Y-59250000D02*
X86040000Y-59250000D01*
X77540000Y-75650000D02*
X77540000Y-59250000D01*
X86040000Y-59250000D02*
X86040000Y-75650000D01*
X86040000Y-75650000D02*
X77540000Y-75650000D01*
%TD*%
M02*
