%TF.GenerationSoftware,KiCad,Pcbnew,8.0.7-8.0.7-0~ubuntu20.04.1*%
%TF.CreationDate,2024-12-27T01:10:47+01:00*%
%TF.ProjectId,pcb_power,7063625f-706f-4776-9572-2e6b69636164,1.0.0*%
%TF.SameCoordinates,Original*%
%TF.FileFunction,AssemblyDrawing,Bot*%
%FSLAX46Y46*%
G04 Gerber Fmt 4.6, Leading zero omitted, Abs format (unit mm)*
G04 Created by KiCad (PCBNEW 8.0.7-8.0.7-0~ubuntu20.04.1) date 2024-12-27 01:10:47*
%MOMM*%
%LPD*%
G01*
G04 APERTURE LIST*
%ADD10C,0.150000*%
%ADD11C,0.100000*%
G04 APERTURE END LIST*
D10*
X72309523Y-59531009D02*
X72166666Y-59578628D01*
X72166666Y-59578628D02*
X72119047Y-59626247D01*
X72119047Y-59626247D02*
X72071428Y-59721485D01*
X72071428Y-59721485D02*
X72071428Y-59864342D01*
X72071428Y-59864342D02*
X72119047Y-59959580D01*
X72119047Y-59959580D02*
X72166666Y-60007200D01*
X72166666Y-60007200D02*
X72261904Y-60054819D01*
X72261904Y-60054819D02*
X72642856Y-60054819D01*
X72642856Y-60054819D02*
X72642856Y-59054819D01*
X72642856Y-59054819D02*
X72309523Y-59054819D01*
X72309523Y-59054819D02*
X72214285Y-59102438D01*
X72214285Y-59102438D02*
X72166666Y-59150057D01*
X72166666Y-59150057D02*
X72119047Y-59245295D01*
X72119047Y-59245295D02*
X72119047Y-59340533D01*
X72119047Y-59340533D02*
X72166666Y-59435771D01*
X72166666Y-59435771D02*
X72214285Y-59483390D01*
X72214285Y-59483390D02*
X72309523Y-59531009D01*
X72309523Y-59531009D02*
X72642856Y-59531009D01*
X71452380Y-59578628D02*
X71452380Y-60054819D01*
X71785713Y-59054819D02*
X71452380Y-59578628D01*
X71452380Y-59578628D02*
X71119047Y-59054819D01*
X70261904Y-59102438D02*
X70357142Y-59054819D01*
X70357142Y-59054819D02*
X70499999Y-59054819D01*
X70499999Y-59054819D02*
X70642856Y-59102438D01*
X70642856Y-59102438D02*
X70738094Y-59197676D01*
X70738094Y-59197676D02*
X70785713Y-59292914D01*
X70785713Y-59292914D02*
X70833332Y-59483390D01*
X70833332Y-59483390D02*
X70833332Y-59626247D01*
X70833332Y-59626247D02*
X70785713Y-59816723D01*
X70785713Y-59816723D02*
X70738094Y-59911961D01*
X70738094Y-59911961D02*
X70642856Y-60007200D01*
X70642856Y-60007200D02*
X70499999Y-60054819D01*
X70499999Y-60054819D02*
X70404761Y-60054819D01*
X70404761Y-60054819D02*
X70261904Y-60007200D01*
X70261904Y-60007200D02*
X70214285Y-59959580D01*
X70214285Y-59959580D02*
X70214285Y-59626247D01*
X70214285Y-59626247D02*
X70404761Y-59626247D01*
X69833332Y-59150057D02*
X69785713Y-59102438D01*
X69785713Y-59102438D02*
X69690475Y-59054819D01*
X69690475Y-59054819D02*
X69452380Y-59054819D01*
X69452380Y-59054819D02*
X69357142Y-59102438D01*
X69357142Y-59102438D02*
X69309523Y-59150057D01*
X69309523Y-59150057D02*
X69261904Y-59245295D01*
X69261904Y-59245295D02*
X69261904Y-59340533D01*
X69261904Y-59340533D02*
X69309523Y-59483390D01*
X69309523Y-59483390D02*
X69880951Y-60054819D01*
X69880951Y-60054819D02*
X69261904Y-60054819D01*
X68880951Y-59150057D02*
X68833332Y-59102438D01*
X68833332Y-59102438D02*
X68738094Y-59054819D01*
X68738094Y-59054819D02*
X68499999Y-59054819D01*
X68499999Y-59054819D02*
X68404761Y-59102438D01*
X68404761Y-59102438D02*
X68357142Y-59150057D01*
X68357142Y-59150057D02*
X68309523Y-59245295D01*
X68309523Y-59245295D02*
X68309523Y-59340533D01*
X68309523Y-59340533D02*
X68357142Y-59483390D01*
X68357142Y-59483390D02*
X68928570Y-60054819D01*
X68928570Y-60054819D02*
X68309523Y-60054819D01*
X67547618Y-59531009D02*
X67404761Y-59578628D01*
X67404761Y-59578628D02*
X67357142Y-59626247D01*
X67357142Y-59626247D02*
X67309523Y-59721485D01*
X67309523Y-59721485D02*
X67309523Y-59864342D01*
X67309523Y-59864342D02*
X67357142Y-59959580D01*
X67357142Y-59959580D02*
X67404761Y-60007200D01*
X67404761Y-60007200D02*
X67499999Y-60054819D01*
X67499999Y-60054819D02*
X67880951Y-60054819D01*
X67880951Y-60054819D02*
X67880951Y-59054819D01*
X67880951Y-59054819D02*
X67547618Y-59054819D01*
X67547618Y-59054819D02*
X67452380Y-59102438D01*
X67452380Y-59102438D02*
X67404761Y-59150057D01*
X67404761Y-59150057D02*
X67357142Y-59245295D01*
X67357142Y-59245295D02*
X67357142Y-59340533D01*
X67357142Y-59340533D02*
X67404761Y-59435771D01*
X67404761Y-59435771D02*
X67452380Y-59483390D01*
X67452380Y-59483390D02*
X67547618Y-59531009D01*
X67547618Y-59531009D02*
X67880951Y-59531009D01*
X71214285Y-54954819D02*
X71214285Y-53954819D01*
X71214285Y-53954819D02*
X70976190Y-53954819D01*
X70976190Y-53954819D02*
X70833333Y-54002438D01*
X70833333Y-54002438D02*
X70738095Y-54097676D01*
X70738095Y-54097676D02*
X70690476Y-54192914D01*
X70690476Y-54192914D02*
X70642857Y-54383390D01*
X70642857Y-54383390D02*
X70642857Y-54526247D01*
X70642857Y-54526247D02*
X70690476Y-54716723D01*
X70690476Y-54716723D02*
X70738095Y-54811961D01*
X70738095Y-54811961D02*
X70833333Y-54907200D01*
X70833333Y-54907200D02*
X70976190Y-54954819D01*
X70976190Y-54954819D02*
X71214285Y-54954819D01*
X70261904Y-54050057D02*
X70214285Y-54002438D01*
X70214285Y-54002438D02*
X70119047Y-53954819D01*
X70119047Y-53954819D02*
X69880952Y-53954819D01*
X69880952Y-53954819D02*
X69785714Y-54002438D01*
X69785714Y-54002438D02*
X69738095Y-54050057D01*
X69738095Y-54050057D02*
X69690476Y-54145295D01*
X69690476Y-54145295D02*
X69690476Y-54240533D01*
X69690476Y-54240533D02*
X69738095Y-54383390D01*
X69738095Y-54383390D02*
X70309523Y-54954819D01*
X70309523Y-54954819D02*
X69690476Y-54954819D01*
X68738095Y-54954819D02*
X69309523Y-54954819D01*
X69023809Y-54954819D02*
X69023809Y-53954819D01*
X69023809Y-53954819D02*
X69119047Y-54097676D01*
X69119047Y-54097676D02*
X69214285Y-54192914D01*
X69214285Y-54192914D02*
X69309523Y-54240533D01*
X105659047Y-47954819D02*
X105659047Y-46954819D01*
X105659047Y-46954819D02*
X105325714Y-47669104D01*
X105325714Y-47669104D02*
X104992381Y-46954819D01*
X104992381Y-46954819D02*
X104992381Y-47954819D01*
X104182857Y-47431009D02*
X104040000Y-47478628D01*
X104040000Y-47478628D02*
X103992381Y-47526247D01*
X103992381Y-47526247D02*
X103944762Y-47621485D01*
X103944762Y-47621485D02*
X103944762Y-47764342D01*
X103944762Y-47764342D02*
X103992381Y-47859580D01*
X103992381Y-47859580D02*
X104040000Y-47907200D01*
X104040000Y-47907200D02*
X104135238Y-47954819D01*
X104135238Y-47954819D02*
X104516190Y-47954819D01*
X104516190Y-47954819D02*
X104516190Y-46954819D01*
X104516190Y-46954819D02*
X104182857Y-46954819D01*
X104182857Y-46954819D02*
X104087619Y-47002438D01*
X104087619Y-47002438D02*
X104040000Y-47050057D01*
X104040000Y-47050057D02*
X103992381Y-47145295D01*
X103992381Y-47145295D02*
X103992381Y-47240533D01*
X103992381Y-47240533D02*
X104040000Y-47335771D01*
X104040000Y-47335771D02*
X104087619Y-47383390D01*
X104087619Y-47383390D02*
X104182857Y-47431009D01*
X104182857Y-47431009D02*
X104516190Y-47431009D01*
X102944762Y-47954819D02*
X103278095Y-47478628D01*
X103516190Y-47954819D02*
X103516190Y-46954819D01*
X103516190Y-46954819D02*
X103135238Y-46954819D01*
X103135238Y-46954819D02*
X103040000Y-47002438D01*
X103040000Y-47002438D02*
X102992381Y-47050057D01*
X102992381Y-47050057D02*
X102944762Y-47145295D01*
X102944762Y-47145295D02*
X102944762Y-47288152D01*
X102944762Y-47288152D02*
X102992381Y-47383390D01*
X102992381Y-47383390D02*
X103040000Y-47431009D01*
X103040000Y-47431009D02*
X103135238Y-47478628D01*
X103135238Y-47478628D02*
X103516190Y-47478628D01*
X102611428Y-46954819D02*
X101992381Y-46954819D01*
X101992381Y-46954819D02*
X102325714Y-47335771D01*
X102325714Y-47335771D02*
X102182857Y-47335771D01*
X102182857Y-47335771D02*
X102087619Y-47383390D01*
X102087619Y-47383390D02*
X102040000Y-47431009D01*
X102040000Y-47431009D02*
X101992381Y-47526247D01*
X101992381Y-47526247D02*
X101992381Y-47764342D01*
X101992381Y-47764342D02*
X102040000Y-47859580D01*
X102040000Y-47859580D02*
X102087619Y-47907200D01*
X102087619Y-47907200D02*
X102182857Y-47954819D01*
X102182857Y-47954819D02*
X102468571Y-47954819D01*
X102468571Y-47954819D02*
X102563809Y-47907200D01*
X102563809Y-47907200D02*
X102611428Y-47859580D01*
X101373333Y-46954819D02*
X101278095Y-46954819D01*
X101278095Y-46954819D02*
X101182857Y-47002438D01*
X101182857Y-47002438D02*
X101135238Y-47050057D01*
X101135238Y-47050057D02*
X101087619Y-47145295D01*
X101087619Y-47145295D02*
X101040000Y-47335771D01*
X101040000Y-47335771D02*
X101040000Y-47573866D01*
X101040000Y-47573866D02*
X101087619Y-47764342D01*
X101087619Y-47764342D02*
X101135238Y-47859580D01*
X101135238Y-47859580D02*
X101182857Y-47907200D01*
X101182857Y-47907200D02*
X101278095Y-47954819D01*
X101278095Y-47954819D02*
X101373333Y-47954819D01*
X101373333Y-47954819D02*
X101468571Y-47907200D01*
X101468571Y-47907200D02*
X101516190Y-47859580D01*
X101516190Y-47859580D02*
X101563809Y-47764342D01*
X101563809Y-47764342D02*
X101611428Y-47573866D01*
X101611428Y-47573866D02*
X101611428Y-47335771D01*
X101611428Y-47335771D02*
X101563809Y-47145295D01*
X101563809Y-47145295D02*
X101516190Y-47050057D01*
X101516190Y-47050057D02*
X101468571Y-47002438D01*
X101468571Y-47002438D02*
X101373333Y-46954819D01*
X100182857Y-47288152D02*
X100182857Y-47954819D01*
X100420952Y-46907200D02*
X100659047Y-47621485D01*
X100659047Y-47621485D02*
X100040000Y-47621485D01*
X99182857Y-46954819D02*
X99659047Y-46954819D01*
X99659047Y-46954819D02*
X99706666Y-47431009D01*
X99706666Y-47431009D02*
X99659047Y-47383390D01*
X99659047Y-47383390D02*
X99563809Y-47335771D01*
X99563809Y-47335771D02*
X99325714Y-47335771D01*
X99325714Y-47335771D02*
X99230476Y-47383390D01*
X99230476Y-47383390D02*
X99182857Y-47431009D01*
X99182857Y-47431009D02*
X99135238Y-47526247D01*
X99135238Y-47526247D02*
X99135238Y-47764342D01*
X99135238Y-47764342D02*
X99182857Y-47859580D01*
X99182857Y-47859580D02*
X99230476Y-47907200D01*
X99230476Y-47907200D02*
X99325714Y-47954819D01*
X99325714Y-47954819D02*
X99563809Y-47954819D01*
X99563809Y-47954819D02*
X99659047Y-47907200D01*
X99659047Y-47907200D02*
X99706666Y-47859580D01*
X98135238Y-47859580D02*
X98182857Y-47907200D01*
X98182857Y-47907200D02*
X98325714Y-47954819D01*
X98325714Y-47954819D02*
X98420952Y-47954819D01*
X98420952Y-47954819D02*
X98563809Y-47907200D01*
X98563809Y-47907200D02*
X98659047Y-47811961D01*
X98659047Y-47811961D02*
X98706666Y-47716723D01*
X98706666Y-47716723D02*
X98754285Y-47526247D01*
X98754285Y-47526247D02*
X98754285Y-47383390D01*
X98754285Y-47383390D02*
X98706666Y-47192914D01*
X98706666Y-47192914D02*
X98659047Y-47097676D01*
X98659047Y-47097676D02*
X98563809Y-47002438D01*
X98563809Y-47002438D02*
X98420952Y-46954819D01*
X98420952Y-46954819D02*
X98325714Y-46954819D01*
X98325714Y-46954819D02*
X98182857Y-47002438D01*
X98182857Y-47002438D02*
X98135238Y-47050057D01*
X97849523Y-46954819D02*
X97278095Y-46954819D01*
X97563809Y-47954819D02*
X97563809Y-46954819D01*
X102754285Y-25374819D02*
X102754285Y-24374819D01*
X102754285Y-24374819D02*
X102516190Y-24374819D01*
X102516190Y-24374819D02*
X102373333Y-24422438D01*
X102373333Y-24422438D02*
X102278095Y-24517676D01*
X102278095Y-24517676D02*
X102230476Y-24612914D01*
X102230476Y-24612914D02*
X102182857Y-24803390D01*
X102182857Y-24803390D02*
X102182857Y-24946247D01*
X102182857Y-24946247D02*
X102230476Y-25136723D01*
X102230476Y-25136723D02*
X102278095Y-25231961D01*
X102278095Y-25231961D02*
X102373333Y-25327200D01*
X102373333Y-25327200D02*
X102516190Y-25374819D01*
X102516190Y-25374819D02*
X102754285Y-25374819D01*
X101849523Y-24374819D02*
X101230476Y-24374819D01*
X101230476Y-24374819D02*
X101563809Y-24755771D01*
X101563809Y-24755771D02*
X101420952Y-24755771D01*
X101420952Y-24755771D02*
X101325714Y-24803390D01*
X101325714Y-24803390D02*
X101278095Y-24851009D01*
X101278095Y-24851009D02*
X101230476Y-24946247D01*
X101230476Y-24946247D02*
X101230476Y-25184342D01*
X101230476Y-25184342D02*
X101278095Y-25279580D01*
X101278095Y-25279580D02*
X101325714Y-25327200D01*
X101325714Y-25327200D02*
X101420952Y-25374819D01*
X101420952Y-25374819D02*
X101706666Y-25374819D01*
X101706666Y-25374819D02*
X101801904Y-25327200D01*
X101801904Y-25327200D02*
X101849523Y-25279580D01*
X100611428Y-24374819D02*
X100516190Y-24374819D01*
X100516190Y-24374819D02*
X100420952Y-24422438D01*
X100420952Y-24422438D02*
X100373333Y-24470057D01*
X100373333Y-24470057D02*
X100325714Y-24565295D01*
X100325714Y-24565295D02*
X100278095Y-24755771D01*
X100278095Y-24755771D02*
X100278095Y-24993866D01*
X100278095Y-24993866D02*
X100325714Y-25184342D01*
X100325714Y-25184342D02*
X100373333Y-25279580D01*
X100373333Y-25279580D02*
X100420952Y-25327200D01*
X100420952Y-25327200D02*
X100516190Y-25374819D01*
X100516190Y-25374819D02*
X100611428Y-25374819D01*
X100611428Y-25374819D02*
X100706666Y-25327200D01*
X100706666Y-25327200D02*
X100754285Y-25279580D01*
X100754285Y-25279580D02*
X100801904Y-25184342D01*
X100801904Y-25184342D02*
X100849523Y-24993866D01*
X100849523Y-24993866D02*
X100849523Y-24755771D01*
X100849523Y-24755771D02*
X100801904Y-24565295D01*
X100801904Y-24565295D02*
X100754285Y-24470057D01*
X100754285Y-24470057D02*
X100706666Y-24422438D01*
X100706666Y-24422438D02*
X100611428Y-24374819D01*
X94659047Y-47954819D02*
X94659047Y-46954819D01*
X94659047Y-46954819D02*
X94325714Y-47669104D01*
X94325714Y-47669104D02*
X93992381Y-46954819D01*
X93992381Y-46954819D02*
X93992381Y-47954819D01*
X93182857Y-47431009D02*
X93040000Y-47478628D01*
X93040000Y-47478628D02*
X92992381Y-47526247D01*
X92992381Y-47526247D02*
X92944762Y-47621485D01*
X92944762Y-47621485D02*
X92944762Y-47764342D01*
X92944762Y-47764342D02*
X92992381Y-47859580D01*
X92992381Y-47859580D02*
X93040000Y-47907200D01*
X93040000Y-47907200D02*
X93135238Y-47954819D01*
X93135238Y-47954819D02*
X93516190Y-47954819D01*
X93516190Y-47954819D02*
X93516190Y-46954819D01*
X93516190Y-46954819D02*
X93182857Y-46954819D01*
X93182857Y-46954819D02*
X93087619Y-47002438D01*
X93087619Y-47002438D02*
X93040000Y-47050057D01*
X93040000Y-47050057D02*
X92992381Y-47145295D01*
X92992381Y-47145295D02*
X92992381Y-47240533D01*
X92992381Y-47240533D02*
X93040000Y-47335771D01*
X93040000Y-47335771D02*
X93087619Y-47383390D01*
X93087619Y-47383390D02*
X93182857Y-47431009D01*
X93182857Y-47431009D02*
X93516190Y-47431009D01*
X91944762Y-47954819D02*
X92278095Y-47478628D01*
X92516190Y-47954819D02*
X92516190Y-46954819D01*
X92516190Y-46954819D02*
X92135238Y-46954819D01*
X92135238Y-46954819D02*
X92040000Y-47002438D01*
X92040000Y-47002438D02*
X91992381Y-47050057D01*
X91992381Y-47050057D02*
X91944762Y-47145295D01*
X91944762Y-47145295D02*
X91944762Y-47288152D01*
X91944762Y-47288152D02*
X91992381Y-47383390D01*
X91992381Y-47383390D02*
X92040000Y-47431009D01*
X92040000Y-47431009D02*
X92135238Y-47478628D01*
X92135238Y-47478628D02*
X92516190Y-47478628D01*
X91611428Y-46954819D02*
X90992381Y-46954819D01*
X90992381Y-46954819D02*
X91325714Y-47335771D01*
X91325714Y-47335771D02*
X91182857Y-47335771D01*
X91182857Y-47335771D02*
X91087619Y-47383390D01*
X91087619Y-47383390D02*
X91040000Y-47431009D01*
X91040000Y-47431009D02*
X90992381Y-47526247D01*
X90992381Y-47526247D02*
X90992381Y-47764342D01*
X90992381Y-47764342D02*
X91040000Y-47859580D01*
X91040000Y-47859580D02*
X91087619Y-47907200D01*
X91087619Y-47907200D02*
X91182857Y-47954819D01*
X91182857Y-47954819D02*
X91468571Y-47954819D01*
X91468571Y-47954819D02*
X91563809Y-47907200D01*
X91563809Y-47907200D02*
X91611428Y-47859580D01*
X90373333Y-46954819D02*
X90278095Y-46954819D01*
X90278095Y-46954819D02*
X90182857Y-47002438D01*
X90182857Y-47002438D02*
X90135238Y-47050057D01*
X90135238Y-47050057D02*
X90087619Y-47145295D01*
X90087619Y-47145295D02*
X90040000Y-47335771D01*
X90040000Y-47335771D02*
X90040000Y-47573866D01*
X90040000Y-47573866D02*
X90087619Y-47764342D01*
X90087619Y-47764342D02*
X90135238Y-47859580D01*
X90135238Y-47859580D02*
X90182857Y-47907200D01*
X90182857Y-47907200D02*
X90278095Y-47954819D01*
X90278095Y-47954819D02*
X90373333Y-47954819D01*
X90373333Y-47954819D02*
X90468571Y-47907200D01*
X90468571Y-47907200D02*
X90516190Y-47859580D01*
X90516190Y-47859580D02*
X90563809Y-47764342D01*
X90563809Y-47764342D02*
X90611428Y-47573866D01*
X90611428Y-47573866D02*
X90611428Y-47335771D01*
X90611428Y-47335771D02*
X90563809Y-47145295D01*
X90563809Y-47145295D02*
X90516190Y-47050057D01*
X90516190Y-47050057D02*
X90468571Y-47002438D01*
X90468571Y-47002438D02*
X90373333Y-46954819D01*
X89182857Y-47288152D02*
X89182857Y-47954819D01*
X89420952Y-46907200D02*
X89659047Y-47621485D01*
X89659047Y-47621485D02*
X89040000Y-47621485D01*
X88182857Y-46954819D02*
X88659047Y-46954819D01*
X88659047Y-46954819D02*
X88706666Y-47431009D01*
X88706666Y-47431009D02*
X88659047Y-47383390D01*
X88659047Y-47383390D02*
X88563809Y-47335771D01*
X88563809Y-47335771D02*
X88325714Y-47335771D01*
X88325714Y-47335771D02*
X88230476Y-47383390D01*
X88230476Y-47383390D02*
X88182857Y-47431009D01*
X88182857Y-47431009D02*
X88135238Y-47526247D01*
X88135238Y-47526247D02*
X88135238Y-47764342D01*
X88135238Y-47764342D02*
X88182857Y-47859580D01*
X88182857Y-47859580D02*
X88230476Y-47907200D01*
X88230476Y-47907200D02*
X88325714Y-47954819D01*
X88325714Y-47954819D02*
X88563809Y-47954819D01*
X88563809Y-47954819D02*
X88659047Y-47907200D01*
X88659047Y-47907200D02*
X88706666Y-47859580D01*
X87135238Y-47859580D02*
X87182857Y-47907200D01*
X87182857Y-47907200D02*
X87325714Y-47954819D01*
X87325714Y-47954819D02*
X87420952Y-47954819D01*
X87420952Y-47954819D02*
X87563809Y-47907200D01*
X87563809Y-47907200D02*
X87659047Y-47811961D01*
X87659047Y-47811961D02*
X87706666Y-47716723D01*
X87706666Y-47716723D02*
X87754285Y-47526247D01*
X87754285Y-47526247D02*
X87754285Y-47383390D01*
X87754285Y-47383390D02*
X87706666Y-47192914D01*
X87706666Y-47192914D02*
X87659047Y-47097676D01*
X87659047Y-47097676D02*
X87563809Y-47002438D01*
X87563809Y-47002438D02*
X87420952Y-46954819D01*
X87420952Y-46954819D02*
X87325714Y-46954819D01*
X87325714Y-46954819D02*
X87182857Y-47002438D01*
X87182857Y-47002438D02*
X87135238Y-47050057D01*
X86849523Y-46954819D02*
X86278095Y-46954819D01*
X86563809Y-47954819D02*
X86563809Y-46954819D01*
X91754285Y-25374819D02*
X91754285Y-24374819D01*
X91754285Y-24374819D02*
X91516190Y-24374819D01*
X91516190Y-24374819D02*
X91373333Y-24422438D01*
X91373333Y-24422438D02*
X91278095Y-24517676D01*
X91278095Y-24517676D02*
X91230476Y-24612914D01*
X91230476Y-24612914D02*
X91182857Y-24803390D01*
X91182857Y-24803390D02*
X91182857Y-24946247D01*
X91182857Y-24946247D02*
X91230476Y-25136723D01*
X91230476Y-25136723D02*
X91278095Y-25231961D01*
X91278095Y-25231961D02*
X91373333Y-25327200D01*
X91373333Y-25327200D02*
X91516190Y-25374819D01*
X91516190Y-25374819D02*
X91754285Y-25374819D01*
X90849523Y-24374819D02*
X90230476Y-24374819D01*
X90230476Y-24374819D02*
X90563809Y-24755771D01*
X90563809Y-24755771D02*
X90420952Y-24755771D01*
X90420952Y-24755771D02*
X90325714Y-24803390D01*
X90325714Y-24803390D02*
X90278095Y-24851009D01*
X90278095Y-24851009D02*
X90230476Y-24946247D01*
X90230476Y-24946247D02*
X90230476Y-25184342D01*
X90230476Y-25184342D02*
X90278095Y-25279580D01*
X90278095Y-25279580D02*
X90325714Y-25327200D01*
X90325714Y-25327200D02*
X90420952Y-25374819D01*
X90420952Y-25374819D02*
X90706666Y-25374819D01*
X90706666Y-25374819D02*
X90801904Y-25327200D01*
X90801904Y-25327200D02*
X90849523Y-25279580D01*
X89849523Y-24470057D02*
X89801904Y-24422438D01*
X89801904Y-24422438D02*
X89706666Y-24374819D01*
X89706666Y-24374819D02*
X89468571Y-24374819D01*
X89468571Y-24374819D02*
X89373333Y-24422438D01*
X89373333Y-24422438D02*
X89325714Y-24470057D01*
X89325714Y-24470057D02*
X89278095Y-24565295D01*
X89278095Y-24565295D02*
X89278095Y-24660533D01*
X89278095Y-24660533D02*
X89325714Y-24803390D01*
X89325714Y-24803390D02*
X89897142Y-25374819D01*
X89897142Y-25374819D02*
X89278095Y-25374819D01*
X108897142Y-76331009D02*
X108754285Y-76378628D01*
X108754285Y-76378628D02*
X108706666Y-76426247D01*
X108706666Y-76426247D02*
X108659047Y-76521485D01*
X108659047Y-76521485D02*
X108659047Y-76664342D01*
X108659047Y-76664342D02*
X108706666Y-76759580D01*
X108706666Y-76759580D02*
X108754285Y-76807200D01*
X108754285Y-76807200D02*
X108849523Y-76854819D01*
X108849523Y-76854819D02*
X109230475Y-76854819D01*
X109230475Y-76854819D02*
X109230475Y-75854819D01*
X109230475Y-75854819D02*
X108897142Y-75854819D01*
X108897142Y-75854819D02*
X108801904Y-75902438D01*
X108801904Y-75902438D02*
X108754285Y-75950057D01*
X108754285Y-75950057D02*
X108706666Y-76045295D01*
X108706666Y-76045295D02*
X108706666Y-76140533D01*
X108706666Y-76140533D02*
X108754285Y-76235771D01*
X108754285Y-76235771D02*
X108801904Y-76283390D01*
X108801904Y-76283390D02*
X108897142Y-76331009D01*
X108897142Y-76331009D02*
X109230475Y-76331009D01*
X108230475Y-76854819D02*
X108230475Y-75854819D01*
X108230475Y-75854819D02*
X107992380Y-75854819D01*
X107992380Y-75854819D02*
X107849523Y-75902438D01*
X107849523Y-75902438D02*
X107754285Y-75997676D01*
X107754285Y-75997676D02*
X107706666Y-76092914D01*
X107706666Y-76092914D02*
X107659047Y-76283390D01*
X107659047Y-76283390D02*
X107659047Y-76426247D01*
X107659047Y-76426247D02*
X107706666Y-76616723D01*
X107706666Y-76616723D02*
X107754285Y-76711961D01*
X107754285Y-76711961D02*
X107849523Y-76807200D01*
X107849523Y-76807200D02*
X107992380Y-76854819D01*
X107992380Y-76854819D02*
X108230475Y-76854819D01*
X106706666Y-76854819D02*
X107278094Y-76854819D01*
X106992380Y-76854819D02*
X106992380Y-75854819D01*
X106992380Y-75854819D02*
X107087618Y-75997676D01*
X107087618Y-75997676D02*
X107182856Y-76092914D01*
X107182856Y-76092914D02*
X107278094Y-76140533D01*
X106373332Y-75854819D02*
X105754285Y-75854819D01*
X105754285Y-75854819D02*
X106087618Y-76235771D01*
X106087618Y-76235771D02*
X105944761Y-76235771D01*
X105944761Y-76235771D02*
X105849523Y-76283390D01*
X105849523Y-76283390D02*
X105801904Y-76331009D01*
X105801904Y-76331009D02*
X105754285Y-76426247D01*
X105754285Y-76426247D02*
X105754285Y-76664342D01*
X105754285Y-76664342D02*
X105801904Y-76759580D01*
X105801904Y-76759580D02*
X105849523Y-76807200D01*
X105849523Y-76807200D02*
X105944761Y-76854819D01*
X105944761Y-76854819D02*
X106230475Y-76854819D01*
X106230475Y-76854819D02*
X106325713Y-76807200D01*
X106325713Y-76807200D02*
X106373332Y-76759580D01*
X105278094Y-76854819D02*
X105087618Y-76854819D01*
X105087618Y-76854819D02*
X104992380Y-76807200D01*
X104992380Y-76807200D02*
X104944761Y-76759580D01*
X104944761Y-76759580D02*
X104849523Y-76616723D01*
X104849523Y-76616723D02*
X104801904Y-76426247D01*
X104801904Y-76426247D02*
X104801904Y-76045295D01*
X104801904Y-76045295D02*
X104849523Y-75950057D01*
X104849523Y-75950057D02*
X104897142Y-75902438D01*
X104897142Y-75902438D02*
X104992380Y-75854819D01*
X104992380Y-75854819D02*
X105182856Y-75854819D01*
X105182856Y-75854819D02*
X105278094Y-75902438D01*
X105278094Y-75902438D02*
X105325713Y-75950057D01*
X105325713Y-75950057D02*
X105373332Y-76045295D01*
X105373332Y-76045295D02*
X105373332Y-76283390D01*
X105373332Y-76283390D02*
X105325713Y-76378628D01*
X105325713Y-76378628D02*
X105278094Y-76426247D01*
X105278094Y-76426247D02*
X105182856Y-76473866D01*
X105182856Y-76473866D02*
X104992380Y-76473866D01*
X104992380Y-76473866D02*
X104897142Y-76426247D01*
X104897142Y-76426247D02*
X104849523Y-76378628D01*
X104849523Y-76378628D02*
X104801904Y-76283390D01*
X107611428Y-58930057D02*
X107706666Y-58882438D01*
X107706666Y-58882438D02*
X107801904Y-58787200D01*
X107801904Y-58787200D02*
X107944761Y-58644342D01*
X107944761Y-58644342D02*
X108039999Y-58596723D01*
X108039999Y-58596723D02*
X108135237Y-58596723D01*
X108087618Y-58834819D02*
X108182856Y-58787200D01*
X108182856Y-58787200D02*
X108278094Y-58691961D01*
X108278094Y-58691961D02*
X108325713Y-58501485D01*
X108325713Y-58501485D02*
X108325713Y-58168152D01*
X108325713Y-58168152D02*
X108278094Y-57977676D01*
X108278094Y-57977676D02*
X108182856Y-57882438D01*
X108182856Y-57882438D02*
X108087618Y-57834819D01*
X108087618Y-57834819D02*
X107897142Y-57834819D01*
X107897142Y-57834819D02*
X107801904Y-57882438D01*
X107801904Y-57882438D02*
X107706666Y-57977676D01*
X107706666Y-57977676D02*
X107659047Y-58168152D01*
X107659047Y-58168152D02*
X107659047Y-58501485D01*
X107659047Y-58501485D02*
X107706666Y-58691961D01*
X107706666Y-58691961D02*
X107801904Y-58787200D01*
X107801904Y-58787200D02*
X107897142Y-58834819D01*
X107897142Y-58834819D02*
X108087618Y-58834819D01*
X106801904Y-58168152D02*
X106801904Y-58834819D01*
X107039999Y-57787200D02*
X107278094Y-58501485D01*
X107278094Y-58501485D02*
X106659047Y-58501485D01*
X106373332Y-57834819D02*
X105754285Y-57834819D01*
X105754285Y-57834819D02*
X106087618Y-58215771D01*
X106087618Y-58215771D02*
X105944761Y-58215771D01*
X105944761Y-58215771D02*
X105849523Y-58263390D01*
X105849523Y-58263390D02*
X105801904Y-58311009D01*
X105801904Y-58311009D02*
X105754285Y-58406247D01*
X105754285Y-58406247D02*
X105754285Y-58644342D01*
X105754285Y-58644342D02*
X105801904Y-58739580D01*
X105801904Y-58739580D02*
X105849523Y-58787200D01*
X105849523Y-58787200D02*
X105944761Y-58834819D01*
X105944761Y-58834819D02*
X106230475Y-58834819D01*
X106230475Y-58834819D02*
X106325713Y-58787200D01*
X106325713Y-58787200D02*
X106373332Y-58739580D01*
X72831009Y-36190476D02*
X72878628Y-36333333D01*
X72878628Y-36333333D02*
X72926247Y-36380952D01*
X72926247Y-36380952D02*
X73021485Y-36428571D01*
X73021485Y-36428571D02*
X73164342Y-36428571D01*
X73164342Y-36428571D02*
X73259580Y-36380952D01*
X73259580Y-36380952D02*
X73307200Y-36333333D01*
X73307200Y-36333333D02*
X73354819Y-36238095D01*
X73354819Y-36238095D02*
X73354819Y-35857143D01*
X73354819Y-35857143D02*
X72354819Y-35857143D01*
X72354819Y-35857143D02*
X72354819Y-36190476D01*
X72354819Y-36190476D02*
X72402438Y-36285714D01*
X72402438Y-36285714D02*
X72450057Y-36333333D01*
X72450057Y-36333333D02*
X72545295Y-36380952D01*
X72545295Y-36380952D02*
X72640533Y-36380952D01*
X72640533Y-36380952D02*
X72735771Y-36333333D01*
X72735771Y-36333333D02*
X72783390Y-36285714D01*
X72783390Y-36285714D02*
X72831009Y-36190476D01*
X72831009Y-36190476D02*
X72831009Y-35857143D01*
X72878628Y-37047619D02*
X73354819Y-37047619D01*
X72354819Y-36714286D02*
X72878628Y-37047619D01*
X72878628Y-37047619D02*
X72354819Y-37380952D01*
X72402438Y-38238095D02*
X72354819Y-38142857D01*
X72354819Y-38142857D02*
X72354819Y-38000000D01*
X72354819Y-38000000D02*
X72402438Y-37857143D01*
X72402438Y-37857143D02*
X72497676Y-37761905D01*
X72497676Y-37761905D02*
X72592914Y-37714286D01*
X72592914Y-37714286D02*
X72783390Y-37666667D01*
X72783390Y-37666667D02*
X72926247Y-37666667D01*
X72926247Y-37666667D02*
X73116723Y-37714286D01*
X73116723Y-37714286D02*
X73211961Y-37761905D01*
X73211961Y-37761905D02*
X73307200Y-37857143D01*
X73307200Y-37857143D02*
X73354819Y-38000000D01*
X73354819Y-38000000D02*
X73354819Y-38095238D01*
X73354819Y-38095238D02*
X73307200Y-38238095D01*
X73307200Y-38238095D02*
X73259580Y-38285714D01*
X73259580Y-38285714D02*
X72926247Y-38285714D01*
X72926247Y-38285714D02*
X72926247Y-38095238D01*
X72450057Y-38666667D02*
X72402438Y-38714286D01*
X72402438Y-38714286D02*
X72354819Y-38809524D01*
X72354819Y-38809524D02*
X72354819Y-39047619D01*
X72354819Y-39047619D02*
X72402438Y-39142857D01*
X72402438Y-39142857D02*
X72450057Y-39190476D01*
X72450057Y-39190476D02*
X72545295Y-39238095D01*
X72545295Y-39238095D02*
X72640533Y-39238095D01*
X72640533Y-39238095D02*
X72783390Y-39190476D01*
X72783390Y-39190476D02*
X73354819Y-38619048D01*
X73354819Y-38619048D02*
X73354819Y-39238095D01*
X72450057Y-39619048D02*
X72402438Y-39666667D01*
X72402438Y-39666667D02*
X72354819Y-39761905D01*
X72354819Y-39761905D02*
X72354819Y-40000000D01*
X72354819Y-40000000D02*
X72402438Y-40095238D01*
X72402438Y-40095238D02*
X72450057Y-40142857D01*
X72450057Y-40142857D02*
X72545295Y-40190476D01*
X72545295Y-40190476D02*
X72640533Y-40190476D01*
X72640533Y-40190476D02*
X72783390Y-40142857D01*
X72783390Y-40142857D02*
X73354819Y-39571429D01*
X73354819Y-39571429D02*
X73354819Y-40190476D01*
X72831009Y-40952381D02*
X72878628Y-41095238D01*
X72878628Y-41095238D02*
X72926247Y-41142857D01*
X72926247Y-41142857D02*
X73021485Y-41190476D01*
X73021485Y-41190476D02*
X73164342Y-41190476D01*
X73164342Y-41190476D02*
X73259580Y-41142857D01*
X73259580Y-41142857D02*
X73307200Y-41095238D01*
X73307200Y-41095238D02*
X73354819Y-41000000D01*
X73354819Y-41000000D02*
X73354819Y-40619048D01*
X73354819Y-40619048D02*
X72354819Y-40619048D01*
X72354819Y-40619048D02*
X72354819Y-40952381D01*
X72354819Y-40952381D02*
X72402438Y-41047619D01*
X72402438Y-41047619D02*
X72450057Y-41095238D01*
X72450057Y-41095238D02*
X72545295Y-41142857D01*
X72545295Y-41142857D02*
X72640533Y-41142857D01*
X72640533Y-41142857D02*
X72735771Y-41095238D01*
X72735771Y-41095238D02*
X72783390Y-41047619D01*
X72783390Y-41047619D02*
X72831009Y-40952381D01*
X72831009Y-40952381D02*
X72831009Y-40619048D01*
X78454819Y-37285714D02*
X77454819Y-37285714D01*
X77454819Y-37285714D02*
X77454819Y-37523809D01*
X77454819Y-37523809D02*
X77502438Y-37666666D01*
X77502438Y-37666666D02*
X77597676Y-37761904D01*
X77597676Y-37761904D02*
X77692914Y-37809523D01*
X77692914Y-37809523D02*
X77883390Y-37857142D01*
X77883390Y-37857142D02*
X78026247Y-37857142D01*
X78026247Y-37857142D02*
X78216723Y-37809523D01*
X78216723Y-37809523D02*
X78311961Y-37761904D01*
X78311961Y-37761904D02*
X78407200Y-37666666D01*
X78407200Y-37666666D02*
X78454819Y-37523809D01*
X78454819Y-37523809D02*
X78454819Y-37285714D01*
X77550057Y-38238095D02*
X77502438Y-38285714D01*
X77502438Y-38285714D02*
X77454819Y-38380952D01*
X77454819Y-38380952D02*
X77454819Y-38619047D01*
X77454819Y-38619047D02*
X77502438Y-38714285D01*
X77502438Y-38714285D02*
X77550057Y-38761904D01*
X77550057Y-38761904D02*
X77645295Y-38809523D01*
X77645295Y-38809523D02*
X77740533Y-38809523D01*
X77740533Y-38809523D02*
X77883390Y-38761904D01*
X77883390Y-38761904D02*
X78454819Y-38190476D01*
X78454819Y-38190476D02*
X78454819Y-38809523D01*
X77454819Y-39428571D02*
X77454819Y-39523809D01*
X77454819Y-39523809D02*
X77502438Y-39619047D01*
X77502438Y-39619047D02*
X77550057Y-39666666D01*
X77550057Y-39666666D02*
X77645295Y-39714285D01*
X77645295Y-39714285D02*
X77835771Y-39761904D01*
X77835771Y-39761904D02*
X78073866Y-39761904D01*
X78073866Y-39761904D02*
X78264342Y-39714285D01*
X78264342Y-39714285D02*
X78359580Y-39666666D01*
X78359580Y-39666666D02*
X78407200Y-39619047D01*
X78407200Y-39619047D02*
X78454819Y-39523809D01*
X78454819Y-39523809D02*
X78454819Y-39428571D01*
X78454819Y-39428571D02*
X78407200Y-39333333D01*
X78407200Y-39333333D02*
X78359580Y-39285714D01*
X78359580Y-39285714D02*
X78264342Y-39238095D01*
X78264342Y-39238095D02*
X78073866Y-39190476D01*
X78073866Y-39190476D02*
X77835771Y-39190476D01*
X77835771Y-39190476D02*
X77645295Y-39238095D01*
X77645295Y-39238095D02*
X77550057Y-39285714D01*
X77550057Y-39285714D02*
X77502438Y-39333333D01*
X77502438Y-39333333D02*
X77454819Y-39428571D01*
X122007142Y-78681009D02*
X121864285Y-78728628D01*
X121864285Y-78728628D02*
X121816666Y-78776247D01*
X121816666Y-78776247D02*
X121769047Y-78871485D01*
X121769047Y-78871485D02*
X121769047Y-79014342D01*
X121769047Y-79014342D02*
X121816666Y-79109580D01*
X121816666Y-79109580D02*
X121864285Y-79157200D01*
X121864285Y-79157200D02*
X121959523Y-79204819D01*
X121959523Y-79204819D02*
X122340475Y-79204819D01*
X122340475Y-79204819D02*
X122340475Y-78204819D01*
X122340475Y-78204819D02*
X122007142Y-78204819D01*
X122007142Y-78204819D02*
X121911904Y-78252438D01*
X121911904Y-78252438D02*
X121864285Y-78300057D01*
X121864285Y-78300057D02*
X121816666Y-78395295D01*
X121816666Y-78395295D02*
X121816666Y-78490533D01*
X121816666Y-78490533D02*
X121864285Y-78585771D01*
X121864285Y-78585771D02*
X121911904Y-78633390D01*
X121911904Y-78633390D02*
X122007142Y-78681009D01*
X122007142Y-78681009D02*
X122340475Y-78681009D01*
X121340475Y-79204819D02*
X121340475Y-78204819D01*
X121340475Y-78204819D02*
X121102380Y-78204819D01*
X121102380Y-78204819D02*
X120959523Y-78252438D01*
X120959523Y-78252438D02*
X120864285Y-78347676D01*
X120864285Y-78347676D02*
X120816666Y-78442914D01*
X120816666Y-78442914D02*
X120769047Y-78633390D01*
X120769047Y-78633390D02*
X120769047Y-78776247D01*
X120769047Y-78776247D02*
X120816666Y-78966723D01*
X120816666Y-78966723D02*
X120864285Y-79061961D01*
X120864285Y-79061961D02*
X120959523Y-79157200D01*
X120959523Y-79157200D02*
X121102380Y-79204819D01*
X121102380Y-79204819D02*
X121340475Y-79204819D01*
X120388094Y-78300057D02*
X120340475Y-78252438D01*
X120340475Y-78252438D02*
X120245237Y-78204819D01*
X120245237Y-78204819D02*
X120007142Y-78204819D01*
X120007142Y-78204819D02*
X119911904Y-78252438D01*
X119911904Y-78252438D02*
X119864285Y-78300057D01*
X119864285Y-78300057D02*
X119816666Y-78395295D01*
X119816666Y-78395295D02*
X119816666Y-78490533D01*
X119816666Y-78490533D02*
X119864285Y-78633390D01*
X119864285Y-78633390D02*
X120435713Y-79204819D01*
X120435713Y-79204819D02*
X119816666Y-79204819D01*
X118959523Y-78538152D02*
X118959523Y-79204819D01*
X119197618Y-78157200D02*
X119435713Y-78871485D01*
X119435713Y-78871485D02*
X118816666Y-78871485D01*
X118388094Y-79204819D02*
X118197618Y-79204819D01*
X118197618Y-79204819D02*
X118102380Y-79157200D01*
X118102380Y-79157200D02*
X118054761Y-79109580D01*
X118054761Y-79109580D02*
X117959523Y-78966723D01*
X117959523Y-78966723D02*
X117911904Y-78776247D01*
X117911904Y-78776247D02*
X117911904Y-78395295D01*
X117911904Y-78395295D02*
X117959523Y-78300057D01*
X117959523Y-78300057D02*
X118007142Y-78252438D01*
X118007142Y-78252438D02*
X118102380Y-78204819D01*
X118102380Y-78204819D02*
X118292856Y-78204819D01*
X118292856Y-78204819D02*
X118388094Y-78252438D01*
X118388094Y-78252438D02*
X118435713Y-78300057D01*
X118435713Y-78300057D02*
X118483332Y-78395295D01*
X118483332Y-78395295D02*
X118483332Y-78633390D01*
X118483332Y-78633390D02*
X118435713Y-78728628D01*
X118435713Y-78728628D02*
X118388094Y-78776247D01*
X118388094Y-78776247D02*
X118292856Y-78823866D01*
X118292856Y-78823866D02*
X118102380Y-78823866D01*
X118102380Y-78823866D02*
X118007142Y-78776247D01*
X118007142Y-78776247D02*
X117959523Y-78728628D01*
X117959523Y-78728628D02*
X117911904Y-78633390D01*
X116911904Y-79109580D02*
X116959523Y-79157200D01*
X116959523Y-79157200D02*
X117102380Y-79204819D01*
X117102380Y-79204819D02*
X117197618Y-79204819D01*
X117197618Y-79204819D02*
X117340475Y-79157200D01*
X117340475Y-79157200D02*
X117435713Y-79061961D01*
X117435713Y-79061961D02*
X117483332Y-78966723D01*
X117483332Y-78966723D02*
X117530951Y-78776247D01*
X117530951Y-78776247D02*
X117530951Y-78633390D01*
X117530951Y-78633390D02*
X117483332Y-78442914D01*
X117483332Y-78442914D02*
X117435713Y-78347676D01*
X117435713Y-78347676D02*
X117340475Y-78252438D01*
X117340475Y-78252438D02*
X117197618Y-78204819D01*
X117197618Y-78204819D02*
X117102380Y-78204819D01*
X117102380Y-78204819D02*
X116959523Y-78252438D01*
X116959523Y-78252438D02*
X116911904Y-78300057D01*
X120221428Y-48900057D02*
X120316666Y-48852438D01*
X120316666Y-48852438D02*
X120411904Y-48757200D01*
X120411904Y-48757200D02*
X120554761Y-48614342D01*
X120554761Y-48614342D02*
X120649999Y-48566723D01*
X120649999Y-48566723D02*
X120745237Y-48566723D01*
X120697618Y-48804819D02*
X120792856Y-48757200D01*
X120792856Y-48757200D02*
X120888094Y-48661961D01*
X120888094Y-48661961D02*
X120935713Y-48471485D01*
X120935713Y-48471485D02*
X120935713Y-48138152D01*
X120935713Y-48138152D02*
X120888094Y-47947676D01*
X120888094Y-47947676D02*
X120792856Y-47852438D01*
X120792856Y-47852438D02*
X120697618Y-47804819D01*
X120697618Y-47804819D02*
X120507142Y-47804819D01*
X120507142Y-47804819D02*
X120411904Y-47852438D01*
X120411904Y-47852438D02*
X120316666Y-47947676D01*
X120316666Y-47947676D02*
X120269047Y-48138152D01*
X120269047Y-48138152D02*
X120269047Y-48471485D01*
X120269047Y-48471485D02*
X120316666Y-48661961D01*
X120316666Y-48661961D02*
X120411904Y-48757200D01*
X120411904Y-48757200D02*
X120507142Y-48804819D01*
X120507142Y-48804819D02*
X120697618Y-48804819D01*
X119411904Y-48138152D02*
X119411904Y-48804819D01*
X119649999Y-47757200D02*
X119888094Y-48471485D01*
X119888094Y-48471485D02*
X119269047Y-48471485D01*
X118935713Y-47900057D02*
X118888094Y-47852438D01*
X118888094Y-47852438D02*
X118792856Y-47804819D01*
X118792856Y-47804819D02*
X118554761Y-47804819D01*
X118554761Y-47804819D02*
X118459523Y-47852438D01*
X118459523Y-47852438D02*
X118411904Y-47900057D01*
X118411904Y-47900057D02*
X118364285Y-47995295D01*
X118364285Y-47995295D02*
X118364285Y-48090533D01*
X118364285Y-48090533D02*
X118411904Y-48233390D01*
X118411904Y-48233390D02*
X118983332Y-48804819D01*
X118983332Y-48804819D02*
X118364285Y-48804819D01*
X116659047Y-47954819D02*
X116659047Y-46954819D01*
X116659047Y-46954819D02*
X116325714Y-47669104D01*
X116325714Y-47669104D02*
X115992381Y-46954819D01*
X115992381Y-46954819D02*
X115992381Y-47954819D01*
X115182857Y-47431009D02*
X115040000Y-47478628D01*
X115040000Y-47478628D02*
X114992381Y-47526247D01*
X114992381Y-47526247D02*
X114944762Y-47621485D01*
X114944762Y-47621485D02*
X114944762Y-47764342D01*
X114944762Y-47764342D02*
X114992381Y-47859580D01*
X114992381Y-47859580D02*
X115040000Y-47907200D01*
X115040000Y-47907200D02*
X115135238Y-47954819D01*
X115135238Y-47954819D02*
X115516190Y-47954819D01*
X115516190Y-47954819D02*
X115516190Y-46954819D01*
X115516190Y-46954819D02*
X115182857Y-46954819D01*
X115182857Y-46954819D02*
X115087619Y-47002438D01*
X115087619Y-47002438D02*
X115040000Y-47050057D01*
X115040000Y-47050057D02*
X114992381Y-47145295D01*
X114992381Y-47145295D02*
X114992381Y-47240533D01*
X114992381Y-47240533D02*
X115040000Y-47335771D01*
X115040000Y-47335771D02*
X115087619Y-47383390D01*
X115087619Y-47383390D02*
X115182857Y-47431009D01*
X115182857Y-47431009D02*
X115516190Y-47431009D01*
X113944762Y-47954819D02*
X114278095Y-47478628D01*
X114516190Y-47954819D02*
X114516190Y-46954819D01*
X114516190Y-46954819D02*
X114135238Y-46954819D01*
X114135238Y-46954819D02*
X114040000Y-47002438D01*
X114040000Y-47002438D02*
X113992381Y-47050057D01*
X113992381Y-47050057D02*
X113944762Y-47145295D01*
X113944762Y-47145295D02*
X113944762Y-47288152D01*
X113944762Y-47288152D02*
X113992381Y-47383390D01*
X113992381Y-47383390D02*
X114040000Y-47431009D01*
X114040000Y-47431009D02*
X114135238Y-47478628D01*
X114135238Y-47478628D02*
X114516190Y-47478628D01*
X113611428Y-46954819D02*
X112992381Y-46954819D01*
X112992381Y-46954819D02*
X113325714Y-47335771D01*
X113325714Y-47335771D02*
X113182857Y-47335771D01*
X113182857Y-47335771D02*
X113087619Y-47383390D01*
X113087619Y-47383390D02*
X113040000Y-47431009D01*
X113040000Y-47431009D02*
X112992381Y-47526247D01*
X112992381Y-47526247D02*
X112992381Y-47764342D01*
X112992381Y-47764342D02*
X113040000Y-47859580D01*
X113040000Y-47859580D02*
X113087619Y-47907200D01*
X113087619Y-47907200D02*
X113182857Y-47954819D01*
X113182857Y-47954819D02*
X113468571Y-47954819D01*
X113468571Y-47954819D02*
X113563809Y-47907200D01*
X113563809Y-47907200D02*
X113611428Y-47859580D01*
X112373333Y-46954819D02*
X112278095Y-46954819D01*
X112278095Y-46954819D02*
X112182857Y-47002438D01*
X112182857Y-47002438D02*
X112135238Y-47050057D01*
X112135238Y-47050057D02*
X112087619Y-47145295D01*
X112087619Y-47145295D02*
X112040000Y-47335771D01*
X112040000Y-47335771D02*
X112040000Y-47573866D01*
X112040000Y-47573866D02*
X112087619Y-47764342D01*
X112087619Y-47764342D02*
X112135238Y-47859580D01*
X112135238Y-47859580D02*
X112182857Y-47907200D01*
X112182857Y-47907200D02*
X112278095Y-47954819D01*
X112278095Y-47954819D02*
X112373333Y-47954819D01*
X112373333Y-47954819D02*
X112468571Y-47907200D01*
X112468571Y-47907200D02*
X112516190Y-47859580D01*
X112516190Y-47859580D02*
X112563809Y-47764342D01*
X112563809Y-47764342D02*
X112611428Y-47573866D01*
X112611428Y-47573866D02*
X112611428Y-47335771D01*
X112611428Y-47335771D02*
X112563809Y-47145295D01*
X112563809Y-47145295D02*
X112516190Y-47050057D01*
X112516190Y-47050057D02*
X112468571Y-47002438D01*
X112468571Y-47002438D02*
X112373333Y-46954819D01*
X111182857Y-47288152D02*
X111182857Y-47954819D01*
X111420952Y-46907200D02*
X111659047Y-47621485D01*
X111659047Y-47621485D02*
X111040000Y-47621485D01*
X110182857Y-46954819D02*
X110659047Y-46954819D01*
X110659047Y-46954819D02*
X110706666Y-47431009D01*
X110706666Y-47431009D02*
X110659047Y-47383390D01*
X110659047Y-47383390D02*
X110563809Y-47335771D01*
X110563809Y-47335771D02*
X110325714Y-47335771D01*
X110325714Y-47335771D02*
X110230476Y-47383390D01*
X110230476Y-47383390D02*
X110182857Y-47431009D01*
X110182857Y-47431009D02*
X110135238Y-47526247D01*
X110135238Y-47526247D02*
X110135238Y-47764342D01*
X110135238Y-47764342D02*
X110182857Y-47859580D01*
X110182857Y-47859580D02*
X110230476Y-47907200D01*
X110230476Y-47907200D02*
X110325714Y-47954819D01*
X110325714Y-47954819D02*
X110563809Y-47954819D01*
X110563809Y-47954819D02*
X110659047Y-47907200D01*
X110659047Y-47907200D02*
X110706666Y-47859580D01*
X109135238Y-47859580D02*
X109182857Y-47907200D01*
X109182857Y-47907200D02*
X109325714Y-47954819D01*
X109325714Y-47954819D02*
X109420952Y-47954819D01*
X109420952Y-47954819D02*
X109563809Y-47907200D01*
X109563809Y-47907200D02*
X109659047Y-47811961D01*
X109659047Y-47811961D02*
X109706666Y-47716723D01*
X109706666Y-47716723D02*
X109754285Y-47526247D01*
X109754285Y-47526247D02*
X109754285Y-47383390D01*
X109754285Y-47383390D02*
X109706666Y-47192914D01*
X109706666Y-47192914D02*
X109659047Y-47097676D01*
X109659047Y-47097676D02*
X109563809Y-47002438D01*
X109563809Y-47002438D02*
X109420952Y-46954819D01*
X109420952Y-46954819D02*
X109325714Y-46954819D01*
X109325714Y-46954819D02*
X109182857Y-47002438D01*
X109182857Y-47002438D02*
X109135238Y-47050057D01*
X108849523Y-46954819D02*
X108278095Y-46954819D01*
X108563809Y-47954819D02*
X108563809Y-46954819D01*
X113754285Y-25374819D02*
X113754285Y-24374819D01*
X113754285Y-24374819D02*
X113516190Y-24374819D01*
X113516190Y-24374819D02*
X113373333Y-24422438D01*
X113373333Y-24422438D02*
X113278095Y-24517676D01*
X113278095Y-24517676D02*
X113230476Y-24612914D01*
X113230476Y-24612914D02*
X113182857Y-24803390D01*
X113182857Y-24803390D02*
X113182857Y-24946247D01*
X113182857Y-24946247D02*
X113230476Y-25136723D01*
X113230476Y-25136723D02*
X113278095Y-25231961D01*
X113278095Y-25231961D02*
X113373333Y-25327200D01*
X113373333Y-25327200D02*
X113516190Y-25374819D01*
X113516190Y-25374819D02*
X113754285Y-25374819D01*
X112849523Y-24374819D02*
X112230476Y-24374819D01*
X112230476Y-24374819D02*
X112563809Y-24755771D01*
X112563809Y-24755771D02*
X112420952Y-24755771D01*
X112420952Y-24755771D02*
X112325714Y-24803390D01*
X112325714Y-24803390D02*
X112278095Y-24851009D01*
X112278095Y-24851009D02*
X112230476Y-24946247D01*
X112230476Y-24946247D02*
X112230476Y-25184342D01*
X112230476Y-25184342D02*
X112278095Y-25279580D01*
X112278095Y-25279580D02*
X112325714Y-25327200D01*
X112325714Y-25327200D02*
X112420952Y-25374819D01*
X112420952Y-25374819D02*
X112706666Y-25374819D01*
X112706666Y-25374819D02*
X112801904Y-25327200D01*
X112801904Y-25327200D02*
X112849523Y-25279580D01*
X111278095Y-25374819D02*
X111849523Y-25374819D01*
X111563809Y-25374819D02*
X111563809Y-24374819D01*
X111563809Y-24374819D02*
X111659047Y-24517676D01*
X111659047Y-24517676D02*
X111754285Y-24612914D01*
X111754285Y-24612914D02*
X111849523Y-24660533D01*
X96707142Y-78681009D02*
X96564285Y-78728628D01*
X96564285Y-78728628D02*
X96516666Y-78776247D01*
X96516666Y-78776247D02*
X96469047Y-78871485D01*
X96469047Y-78871485D02*
X96469047Y-79014342D01*
X96469047Y-79014342D02*
X96516666Y-79109580D01*
X96516666Y-79109580D02*
X96564285Y-79157200D01*
X96564285Y-79157200D02*
X96659523Y-79204819D01*
X96659523Y-79204819D02*
X97040475Y-79204819D01*
X97040475Y-79204819D02*
X97040475Y-78204819D01*
X97040475Y-78204819D02*
X96707142Y-78204819D01*
X96707142Y-78204819D02*
X96611904Y-78252438D01*
X96611904Y-78252438D02*
X96564285Y-78300057D01*
X96564285Y-78300057D02*
X96516666Y-78395295D01*
X96516666Y-78395295D02*
X96516666Y-78490533D01*
X96516666Y-78490533D02*
X96564285Y-78585771D01*
X96564285Y-78585771D02*
X96611904Y-78633390D01*
X96611904Y-78633390D02*
X96707142Y-78681009D01*
X96707142Y-78681009D02*
X97040475Y-78681009D01*
X96040475Y-79204819D02*
X96040475Y-78204819D01*
X96040475Y-78204819D02*
X95802380Y-78204819D01*
X95802380Y-78204819D02*
X95659523Y-78252438D01*
X95659523Y-78252438D02*
X95564285Y-78347676D01*
X95564285Y-78347676D02*
X95516666Y-78442914D01*
X95516666Y-78442914D02*
X95469047Y-78633390D01*
X95469047Y-78633390D02*
X95469047Y-78776247D01*
X95469047Y-78776247D02*
X95516666Y-78966723D01*
X95516666Y-78966723D02*
X95564285Y-79061961D01*
X95564285Y-79061961D02*
X95659523Y-79157200D01*
X95659523Y-79157200D02*
X95802380Y-79204819D01*
X95802380Y-79204819D02*
X96040475Y-79204819D01*
X95088094Y-78300057D02*
X95040475Y-78252438D01*
X95040475Y-78252438D02*
X94945237Y-78204819D01*
X94945237Y-78204819D02*
X94707142Y-78204819D01*
X94707142Y-78204819D02*
X94611904Y-78252438D01*
X94611904Y-78252438D02*
X94564285Y-78300057D01*
X94564285Y-78300057D02*
X94516666Y-78395295D01*
X94516666Y-78395295D02*
X94516666Y-78490533D01*
X94516666Y-78490533D02*
X94564285Y-78633390D01*
X94564285Y-78633390D02*
X95135713Y-79204819D01*
X95135713Y-79204819D02*
X94516666Y-79204819D01*
X93659523Y-78538152D02*
X93659523Y-79204819D01*
X93897618Y-78157200D02*
X94135713Y-78871485D01*
X94135713Y-78871485D02*
X93516666Y-78871485D01*
X93088094Y-79204819D02*
X92897618Y-79204819D01*
X92897618Y-79204819D02*
X92802380Y-79157200D01*
X92802380Y-79157200D02*
X92754761Y-79109580D01*
X92754761Y-79109580D02*
X92659523Y-78966723D01*
X92659523Y-78966723D02*
X92611904Y-78776247D01*
X92611904Y-78776247D02*
X92611904Y-78395295D01*
X92611904Y-78395295D02*
X92659523Y-78300057D01*
X92659523Y-78300057D02*
X92707142Y-78252438D01*
X92707142Y-78252438D02*
X92802380Y-78204819D01*
X92802380Y-78204819D02*
X92992856Y-78204819D01*
X92992856Y-78204819D02*
X93088094Y-78252438D01*
X93088094Y-78252438D02*
X93135713Y-78300057D01*
X93135713Y-78300057D02*
X93183332Y-78395295D01*
X93183332Y-78395295D02*
X93183332Y-78633390D01*
X93183332Y-78633390D02*
X93135713Y-78728628D01*
X93135713Y-78728628D02*
X93088094Y-78776247D01*
X93088094Y-78776247D02*
X92992856Y-78823866D01*
X92992856Y-78823866D02*
X92802380Y-78823866D01*
X92802380Y-78823866D02*
X92707142Y-78776247D01*
X92707142Y-78776247D02*
X92659523Y-78728628D01*
X92659523Y-78728628D02*
X92611904Y-78633390D01*
X91611904Y-79109580D02*
X91659523Y-79157200D01*
X91659523Y-79157200D02*
X91802380Y-79204819D01*
X91802380Y-79204819D02*
X91897618Y-79204819D01*
X91897618Y-79204819D02*
X92040475Y-79157200D01*
X92040475Y-79157200D02*
X92135713Y-79061961D01*
X92135713Y-79061961D02*
X92183332Y-78966723D01*
X92183332Y-78966723D02*
X92230951Y-78776247D01*
X92230951Y-78776247D02*
X92230951Y-78633390D01*
X92230951Y-78633390D02*
X92183332Y-78442914D01*
X92183332Y-78442914D02*
X92135713Y-78347676D01*
X92135713Y-78347676D02*
X92040475Y-78252438D01*
X92040475Y-78252438D02*
X91897618Y-78204819D01*
X91897618Y-78204819D02*
X91802380Y-78204819D01*
X91802380Y-78204819D02*
X91659523Y-78252438D01*
X91659523Y-78252438D02*
X91611904Y-78300057D01*
X94921428Y-48900057D02*
X95016666Y-48852438D01*
X95016666Y-48852438D02*
X95111904Y-48757200D01*
X95111904Y-48757200D02*
X95254761Y-48614342D01*
X95254761Y-48614342D02*
X95349999Y-48566723D01*
X95349999Y-48566723D02*
X95445237Y-48566723D01*
X95397618Y-48804819D02*
X95492856Y-48757200D01*
X95492856Y-48757200D02*
X95588094Y-48661961D01*
X95588094Y-48661961D02*
X95635713Y-48471485D01*
X95635713Y-48471485D02*
X95635713Y-48138152D01*
X95635713Y-48138152D02*
X95588094Y-47947676D01*
X95588094Y-47947676D02*
X95492856Y-47852438D01*
X95492856Y-47852438D02*
X95397618Y-47804819D01*
X95397618Y-47804819D02*
X95207142Y-47804819D01*
X95207142Y-47804819D02*
X95111904Y-47852438D01*
X95111904Y-47852438D02*
X95016666Y-47947676D01*
X95016666Y-47947676D02*
X94969047Y-48138152D01*
X94969047Y-48138152D02*
X94969047Y-48471485D01*
X94969047Y-48471485D02*
X95016666Y-48661961D01*
X95016666Y-48661961D02*
X95111904Y-48757200D01*
X95111904Y-48757200D02*
X95207142Y-48804819D01*
X95207142Y-48804819D02*
X95397618Y-48804819D01*
X94111904Y-48138152D02*
X94111904Y-48804819D01*
X94349999Y-47757200D02*
X94588094Y-48471485D01*
X94588094Y-48471485D02*
X93969047Y-48471485D01*
X93397618Y-47804819D02*
X93302380Y-47804819D01*
X93302380Y-47804819D02*
X93207142Y-47852438D01*
X93207142Y-47852438D02*
X93159523Y-47900057D01*
X93159523Y-47900057D02*
X93111904Y-47995295D01*
X93111904Y-47995295D02*
X93064285Y-48185771D01*
X93064285Y-48185771D02*
X93064285Y-48423866D01*
X93064285Y-48423866D02*
X93111904Y-48614342D01*
X93111904Y-48614342D02*
X93159523Y-48709580D01*
X93159523Y-48709580D02*
X93207142Y-48757200D01*
X93207142Y-48757200D02*
X93302380Y-48804819D01*
X93302380Y-48804819D02*
X93397618Y-48804819D01*
X93397618Y-48804819D02*
X93492856Y-48757200D01*
X93492856Y-48757200D02*
X93540475Y-48709580D01*
X93540475Y-48709580D02*
X93588094Y-48614342D01*
X93588094Y-48614342D02*
X93635713Y-48423866D01*
X93635713Y-48423866D02*
X93635713Y-48185771D01*
X93635713Y-48185771D02*
X93588094Y-47995295D01*
X93588094Y-47995295D02*
X93540475Y-47900057D01*
X93540475Y-47900057D02*
X93492856Y-47852438D01*
X93492856Y-47852438D02*
X93397618Y-47804819D01*
X127659047Y-47954819D02*
X127659047Y-46954819D01*
X127659047Y-46954819D02*
X127325714Y-47669104D01*
X127325714Y-47669104D02*
X126992381Y-46954819D01*
X126992381Y-46954819D02*
X126992381Y-47954819D01*
X126182857Y-47431009D02*
X126040000Y-47478628D01*
X126040000Y-47478628D02*
X125992381Y-47526247D01*
X125992381Y-47526247D02*
X125944762Y-47621485D01*
X125944762Y-47621485D02*
X125944762Y-47764342D01*
X125944762Y-47764342D02*
X125992381Y-47859580D01*
X125992381Y-47859580D02*
X126040000Y-47907200D01*
X126040000Y-47907200D02*
X126135238Y-47954819D01*
X126135238Y-47954819D02*
X126516190Y-47954819D01*
X126516190Y-47954819D02*
X126516190Y-46954819D01*
X126516190Y-46954819D02*
X126182857Y-46954819D01*
X126182857Y-46954819D02*
X126087619Y-47002438D01*
X126087619Y-47002438D02*
X126040000Y-47050057D01*
X126040000Y-47050057D02*
X125992381Y-47145295D01*
X125992381Y-47145295D02*
X125992381Y-47240533D01*
X125992381Y-47240533D02*
X126040000Y-47335771D01*
X126040000Y-47335771D02*
X126087619Y-47383390D01*
X126087619Y-47383390D02*
X126182857Y-47431009D01*
X126182857Y-47431009D02*
X126516190Y-47431009D01*
X124944762Y-47954819D02*
X125278095Y-47478628D01*
X125516190Y-47954819D02*
X125516190Y-46954819D01*
X125516190Y-46954819D02*
X125135238Y-46954819D01*
X125135238Y-46954819D02*
X125040000Y-47002438D01*
X125040000Y-47002438D02*
X124992381Y-47050057D01*
X124992381Y-47050057D02*
X124944762Y-47145295D01*
X124944762Y-47145295D02*
X124944762Y-47288152D01*
X124944762Y-47288152D02*
X124992381Y-47383390D01*
X124992381Y-47383390D02*
X125040000Y-47431009D01*
X125040000Y-47431009D02*
X125135238Y-47478628D01*
X125135238Y-47478628D02*
X125516190Y-47478628D01*
X124611428Y-46954819D02*
X123992381Y-46954819D01*
X123992381Y-46954819D02*
X124325714Y-47335771D01*
X124325714Y-47335771D02*
X124182857Y-47335771D01*
X124182857Y-47335771D02*
X124087619Y-47383390D01*
X124087619Y-47383390D02*
X124040000Y-47431009D01*
X124040000Y-47431009D02*
X123992381Y-47526247D01*
X123992381Y-47526247D02*
X123992381Y-47764342D01*
X123992381Y-47764342D02*
X124040000Y-47859580D01*
X124040000Y-47859580D02*
X124087619Y-47907200D01*
X124087619Y-47907200D02*
X124182857Y-47954819D01*
X124182857Y-47954819D02*
X124468571Y-47954819D01*
X124468571Y-47954819D02*
X124563809Y-47907200D01*
X124563809Y-47907200D02*
X124611428Y-47859580D01*
X123373333Y-46954819D02*
X123278095Y-46954819D01*
X123278095Y-46954819D02*
X123182857Y-47002438D01*
X123182857Y-47002438D02*
X123135238Y-47050057D01*
X123135238Y-47050057D02*
X123087619Y-47145295D01*
X123087619Y-47145295D02*
X123040000Y-47335771D01*
X123040000Y-47335771D02*
X123040000Y-47573866D01*
X123040000Y-47573866D02*
X123087619Y-47764342D01*
X123087619Y-47764342D02*
X123135238Y-47859580D01*
X123135238Y-47859580D02*
X123182857Y-47907200D01*
X123182857Y-47907200D02*
X123278095Y-47954819D01*
X123278095Y-47954819D02*
X123373333Y-47954819D01*
X123373333Y-47954819D02*
X123468571Y-47907200D01*
X123468571Y-47907200D02*
X123516190Y-47859580D01*
X123516190Y-47859580D02*
X123563809Y-47764342D01*
X123563809Y-47764342D02*
X123611428Y-47573866D01*
X123611428Y-47573866D02*
X123611428Y-47335771D01*
X123611428Y-47335771D02*
X123563809Y-47145295D01*
X123563809Y-47145295D02*
X123516190Y-47050057D01*
X123516190Y-47050057D02*
X123468571Y-47002438D01*
X123468571Y-47002438D02*
X123373333Y-46954819D01*
X122182857Y-47288152D02*
X122182857Y-47954819D01*
X122420952Y-46907200D02*
X122659047Y-47621485D01*
X122659047Y-47621485D02*
X122040000Y-47621485D01*
X121182857Y-46954819D02*
X121659047Y-46954819D01*
X121659047Y-46954819D02*
X121706666Y-47431009D01*
X121706666Y-47431009D02*
X121659047Y-47383390D01*
X121659047Y-47383390D02*
X121563809Y-47335771D01*
X121563809Y-47335771D02*
X121325714Y-47335771D01*
X121325714Y-47335771D02*
X121230476Y-47383390D01*
X121230476Y-47383390D02*
X121182857Y-47431009D01*
X121182857Y-47431009D02*
X121135238Y-47526247D01*
X121135238Y-47526247D02*
X121135238Y-47764342D01*
X121135238Y-47764342D02*
X121182857Y-47859580D01*
X121182857Y-47859580D02*
X121230476Y-47907200D01*
X121230476Y-47907200D02*
X121325714Y-47954819D01*
X121325714Y-47954819D02*
X121563809Y-47954819D01*
X121563809Y-47954819D02*
X121659047Y-47907200D01*
X121659047Y-47907200D02*
X121706666Y-47859580D01*
X120135238Y-47859580D02*
X120182857Y-47907200D01*
X120182857Y-47907200D02*
X120325714Y-47954819D01*
X120325714Y-47954819D02*
X120420952Y-47954819D01*
X120420952Y-47954819D02*
X120563809Y-47907200D01*
X120563809Y-47907200D02*
X120659047Y-47811961D01*
X120659047Y-47811961D02*
X120706666Y-47716723D01*
X120706666Y-47716723D02*
X120754285Y-47526247D01*
X120754285Y-47526247D02*
X120754285Y-47383390D01*
X120754285Y-47383390D02*
X120706666Y-47192914D01*
X120706666Y-47192914D02*
X120659047Y-47097676D01*
X120659047Y-47097676D02*
X120563809Y-47002438D01*
X120563809Y-47002438D02*
X120420952Y-46954819D01*
X120420952Y-46954819D02*
X120325714Y-46954819D01*
X120325714Y-46954819D02*
X120182857Y-47002438D01*
X120182857Y-47002438D02*
X120135238Y-47050057D01*
X119849523Y-46954819D02*
X119278095Y-46954819D01*
X119563809Y-47954819D02*
X119563809Y-46954819D01*
X124754285Y-25374819D02*
X124754285Y-24374819D01*
X124754285Y-24374819D02*
X124516190Y-24374819D01*
X124516190Y-24374819D02*
X124373333Y-24422438D01*
X124373333Y-24422438D02*
X124278095Y-24517676D01*
X124278095Y-24517676D02*
X124230476Y-24612914D01*
X124230476Y-24612914D02*
X124182857Y-24803390D01*
X124182857Y-24803390D02*
X124182857Y-24946247D01*
X124182857Y-24946247D02*
X124230476Y-25136723D01*
X124230476Y-25136723D02*
X124278095Y-25231961D01*
X124278095Y-25231961D02*
X124373333Y-25327200D01*
X124373333Y-25327200D02*
X124516190Y-25374819D01*
X124516190Y-25374819D02*
X124754285Y-25374819D01*
X123849523Y-24374819D02*
X123230476Y-24374819D01*
X123230476Y-24374819D02*
X123563809Y-24755771D01*
X123563809Y-24755771D02*
X123420952Y-24755771D01*
X123420952Y-24755771D02*
X123325714Y-24803390D01*
X123325714Y-24803390D02*
X123278095Y-24851009D01*
X123278095Y-24851009D02*
X123230476Y-24946247D01*
X123230476Y-24946247D02*
X123230476Y-25184342D01*
X123230476Y-25184342D02*
X123278095Y-25279580D01*
X123278095Y-25279580D02*
X123325714Y-25327200D01*
X123325714Y-25327200D02*
X123420952Y-25374819D01*
X123420952Y-25374819D02*
X123706666Y-25374819D01*
X123706666Y-25374819D02*
X123801904Y-25327200D01*
X123801904Y-25327200D02*
X123849523Y-25279580D01*
X122897142Y-24374819D02*
X122278095Y-24374819D01*
X122278095Y-24374819D02*
X122611428Y-24755771D01*
X122611428Y-24755771D02*
X122468571Y-24755771D01*
X122468571Y-24755771D02*
X122373333Y-24803390D01*
X122373333Y-24803390D02*
X122325714Y-24851009D01*
X122325714Y-24851009D02*
X122278095Y-24946247D01*
X122278095Y-24946247D02*
X122278095Y-25184342D01*
X122278095Y-25184342D02*
X122325714Y-25279580D01*
X122325714Y-25279580D02*
X122373333Y-25327200D01*
X122373333Y-25327200D02*
X122468571Y-25374819D01*
X122468571Y-25374819D02*
X122754285Y-25374819D01*
X122754285Y-25374819D02*
X122849523Y-25327200D01*
X122849523Y-25327200D02*
X122897142Y-25279580D01*
X83647142Y-76331009D02*
X83504285Y-76378628D01*
X83504285Y-76378628D02*
X83456666Y-76426247D01*
X83456666Y-76426247D02*
X83409047Y-76521485D01*
X83409047Y-76521485D02*
X83409047Y-76664342D01*
X83409047Y-76664342D02*
X83456666Y-76759580D01*
X83456666Y-76759580D02*
X83504285Y-76807200D01*
X83504285Y-76807200D02*
X83599523Y-76854819D01*
X83599523Y-76854819D02*
X83980475Y-76854819D01*
X83980475Y-76854819D02*
X83980475Y-75854819D01*
X83980475Y-75854819D02*
X83647142Y-75854819D01*
X83647142Y-75854819D02*
X83551904Y-75902438D01*
X83551904Y-75902438D02*
X83504285Y-75950057D01*
X83504285Y-75950057D02*
X83456666Y-76045295D01*
X83456666Y-76045295D02*
X83456666Y-76140533D01*
X83456666Y-76140533D02*
X83504285Y-76235771D01*
X83504285Y-76235771D02*
X83551904Y-76283390D01*
X83551904Y-76283390D02*
X83647142Y-76331009D01*
X83647142Y-76331009D02*
X83980475Y-76331009D01*
X82980475Y-76854819D02*
X82980475Y-75854819D01*
X82980475Y-75854819D02*
X82742380Y-75854819D01*
X82742380Y-75854819D02*
X82599523Y-75902438D01*
X82599523Y-75902438D02*
X82504285Y-75997676D01*
X82504285Y-75997676D02*
X82456666Y-76092914D01*
X82456666Y-76092914D02*
X82409047Y-76283390D01*
X82409047Y-76283390D02*
X82409047Y-76426247D01*
X82409047Y-76426247D02*
X82456666Y-76616723D01*
X82456666Y-76616723D02*
X82504285Y-76711961D01*
X82504285Y-76711961D02*
X82599523Y-76807200D01*
X82599523Y-76807200D02*
X82742380Y-76854819D01*
X82742380Y-76854819D02*
X82980475Y-76854819D01*
X81456666Y-76854819D02*
X82028094Y-76854819D01*
X81742380Y-76854819D02*
X81742380Y-75854819D01*
X81742380Y-75854819D02*
X81837618Y-75997676D01*
X81837618Y-75997676D02*
X81932856Y-76092914D01*
X81932856Y-76092914D02*
X82028094Y-76140533D01*
X81123332Y-75854819D02*
X80504285Y-75854819D01*
X80504285Y-75854819D02*
X80837618Y-76235771D01*
X80837618Y-76235771D02*
X80694761Y-76235771D01*
X80694761Y-76235771D02*
X80599523Y-76283390D01*
X80599523Y-76283390D02*
X80551904Y-76331009D01*
X80551904Y-76331009D02*
X80504285Y-76426247D01*
X80504285Y-76426247D02*
X80504285Y-76664342D01*
X80504285Y-76664342D02*
X80551904Y-76759580D01*
X80551904Y-76759580D02*
X80599523Y-76807200D01*
X80599523Y-76807200D02*
X80694761Y-76854819D01*
X80694761Y-76854819D02*
X80980475Y-76854819D01*
X80980475Y-76854819D02*
X81075713Y-76807200D01*
X81075713Y-76807200D02*
X81123332Y-76759580D01*
X80028094Y-76854819D02*
X79837618Y-76854819D01*
X79837618Y-76854819D02*
X79742380Y-76807200D01*
X79742380Y-76807200D02*
X79694761Y-76759580D01*
X79694761Y-76759580D02*
X79599523Y-76616723D01*
X79599523Y-76616723D02*
X79551904Y-76426247D01*
X79551904Y-76426247D02*
X79551904Y-76045295D01*
X79551904Y-76045295D02*
X79599523Y-75950057D01*
X79599523Y-75950057D02*
X79647142Y-75902438D01*
X79647142Y-75902438D02*
X79742380Y-75854819D01*
X79742380Y-75854819D02*
X79932856Y-75854819D01*
X79932856Y-75854819D02*
X80028094Y-75902438D01*
X80028094Y-75902438D02*
X80075713Y-75950057D01*
X80075713Y-75950057D02*
X80123332Y-76045295D01*
X80123332Y-76045295D02*
X80123332Y-76283390D01*
X80123332Y-76283390D02*
X80075713Y-76378628D01*
X80075713Y-76378628D02*
X80028094Y-76426247D01*
X80028094Y-76426247D02*
X79932856Y-76473866D01*
X79932856Y-76473866D02*
X79742380Y-76473866D01*
X79742380Y-76473866D02*
X79647142Y-76426247D01*
X79647142Y-76426247D02*
X79599523Y-76378628D01*
X79599523Y-76378628D02*
X79551904Y-76283390D01*
X82361428Y-58930057D02*
X82456666Y-58882438D01*
X82456666Y-58882438D02*
X82551904Y-58787200D01*
X82551904Y-58787200D02*
X82694761Y-58644342D01*
X82694761Y-58644342D02*
X82789999Y-58596723D01*
X82789999Y-58596723D02*
X82885237Y-58596723D01*
X82837618Y-58834819D02*
X82932856Y-58787200D01*
X82932856Y-58787200D02*
X83028094Y-58691961D01*
X83028094Y-58691961D02*
X83075713Y-58501485D01*
X83075713Y-58501485D02*
X83075713Y-58168152D01*
X83075713Y-58168152D02*
X83028094Y-57977676D01*
X83028094Y-57977676D02*
X82932856Y-57882438D01*
X82932856Y-57882438D02*
X82837618Y-57834819D01*
X82837618Y-57834819D02*
X82647142Y-57834819D01*
X82647142Y-57834819D02*
X82551904Y-57882438D01*
X82551904Y-57882438D02*
X82456666Y-57977676D01*
X82456666Y-57977676D02*
X82409047Y-58168152D01*
X82409047Y-58168152D02*
X82409047Y-58501485D01*
X82409047Y-58501485D02*
X82456666Y-58691961D01*
X82456666Y-58691961D02*
X82551904Y-58787200D01*
X82551904Y-58787200D02*
X82647142Y-58834819D01*
X82647142Y-58834819D02*
X82837618Y-58834819D01*
X81551904Y-58168152D02*
X81551904Y-58834819D01*
X81789999Y-57787200D02*
X82028094Y-58501485D01*
X82028094Y-58501485D02*
X81409047Y-58501485D01*
X80504285Y-58834819D02*
X81075713Y-58834819D01*
X80789999Y-58834819D02*
X80789999Y-57834819D01*
X80789999Y-57834819D02*
X80885237Y-57977676D01*
X80885237Y-57977676D02*
X80980475Y-58072914D01*
X80980475Y-58072914D02*
X81075713Y-58120533D01*
D11*
%TO.C,D21*%
X67700000Y-58500000D02*
X67700000Y-55500000D01*
X68500600Y-57001020D02*
X69498820Y-57001020D01*
X69498820Y-56200920D02*
X69498820Y-57750320D01*
X69498820Y-56200920D02*
X70649440Y-57001020D01*
X69498820Y-57750320D02*
X70649440Y-57001020D01*
X70649440Y-57801120D02*
X70649440Y-56200920D01*
X71551140Y-57001020D02*
X70649440Y-57001020D01*
X72300000Y-55500000D02*
X67700000Y-55500000D01*
X72300000Y-55500000D02*
X72300000Y-58500000D01*
X72300000Y-58500000D02*
X67700000Y-58500000D01*
%TO.C,D30*%
X96540000Y-26040000D02*
X106540000Y-26040000D01*
X96540000Y-32440000D02*
X96540000Y-26040000D01*
X96540000Y-32440000D02*
X106540000Y-32440000D01*
X96540000Y-41690000D02*
X96540000Y-32440000D01*
X99000000Y-41690000D02*
X99000000Y-45500000D01*
X101540000Y-41690000D02*
X101540000Y-45500000D01*
X104080000Y-41690000D02*
X104080000Y-45500000D01*
X106540000Y-26040000D02*
X106540000Y-32440000D01*
X106540000Y-32440000D02*
X96540000Y-32440000D01*
X106540000Y-32440000D02*
X106540000Y-41690000D01*
X106540000Y-41690000D02*
X96540000Y-41690000D01*
X103390000Y-28840000D02*
G75*
G02*
X99690000Y-28840000I-1850000J0D01*
G01*
X99690000Y-28840000D02*
G75*
G02*
X103390000Y-28840000I1850000J0D01*
G01*
%TO.C,D32*%
X85540000Y-26040000D02*
X95540000Y-26040000D01*
X85540000Y-32440000D02*
X85540000Y-26040000D01*
X85540000Y-32440000D02*
X95540000Y-32440000D01*
X85540000Y-41690000D02*
X85540000Y-32440000D01*
X88000000Y-41690000D02*
X88000000Y-45500000D01*
X90540000Y-41690000D02*
X90540000Y-45500000D01*
X93080000Y-41690000D02*
X93080000Y-45500000D01*
X95540000Y-26040000D02*
X95540000Y-32440000D01*
X95540000Y-32440000D02*
X85540000Y-32440000D01*
X95540000Y-32440000D02*
X95540000Y-41690000D01*
X95540000Y-41690000D02*
X85540000Y-41690000D01*
X92390000Y-28840000D02*
G75*
G02*
X88690000Y-28840000I-1850000J0D01*
G01*
X88690000Y-28840000D02*
G75*
G02*
X92390000Y-28840000I1850000J0D01*
G01*
%TO.C,Q43*%
X103040000Y-59500000D02*
X111040000Y-59500000D01*
X103040000Y-70500000D02*
X103040000Y-59500000D01*
X104500000Y-70500000D02*
X104500000Y-74500000D01*
X107040000Y-70500000D02*
X107040000Y-74500000D01*
X109580000Y-70500000D02*
X109580000Y-74500000D01*
X111040000Y-59500000D02*
X111040000Y-70500000D01*
X111040000Y-70500000D02*
X103040000Y-70500000D01*
X108640000Y-63400000D02*
G75*
G02*
X105440000Y-63400000I-1600000J0D01*
G01*
X105440000Y-63400000D02*
G75*
G02*
X108640000Y-63400000I1600000J0D01*
G01*
%TO.C,D20*%
X74000000Y-36200000D02*
X77000000Y-36200000D01*
X74000000Y-40800000D02*
X74000000Y-36200000D01*
X74698880Y-39149440D02*
X76299080Y-39149440D01*
X74749680Y-37998820D02*
X75498980Y-39149440D01*
X75498980Y-37000600D02*
X75498980Y-37998820D01*
X75498980Y-40051140D02*
X75498980Y-39149440D01*
X76299080Y-37998820D02*
X74749680Y-37998820D01*
X76299080Y-37998820D02*
X75498980Y-39149440D01*
X77000000Y-40800000D02*
X74000000Y-40800000D01*
X77000000Y-40800000D02*
X77000000Y-36200000D01*
%TO.C,Q42*%
X111700000Y-49470000D02*
X127600000Y-49470000D01*
X111700000Y-70420000D02*
X111700000Y-49470000D01*
X114200000Y-70420000D02*
X114200000Y-75500000D01*
X119650000Y-70420000D02*
X119650000Y-75500000D01*
X125100000Y-70420000D02*
X125100000Y-75500000D01*
X127600000Y-49470000D02*
X127600000Y-70420000D01*
X127600000Y-70420000D02*
X111700000Y-70420000D01*
X121455000Y-55640000D02*
G75*
G02*
X117845000Y-55640000I-1805000J0D01*
G01*
X117845000Y-55640000D02*
G75*
G02*
X121455000Y-55640000I1805000J0D01*
G01*
%TO.C,D31*%
X107540000Y-26040000D02*
X117540000Y-26040000D01*
X107540000Y-32440000D02*
X107540000Y-26040000D01*
X107540000Y-32440000D02*
X117540000Y-32440000D01*
X107540000Y-41690000D02*
X107540000Y-32440000D01*
X110000000Y-41690000D02*
X110000000Y-45500000D01*
X112540000Y-41690000D02*
X112540000Y-45500000D01*
X115080000Y-41690000D02*
X115080000Y-45500000D01*
X117540000Y-26040000D02*
X117540000Y-32440000D01*
X117540000Y-32440000D02*
X107540000Y-32440000D01*
X117540000Y-32440000D02*
X117540000Y-41690000D01*
X117540000Y-41690000D02*
X107540000Y-41690000D01*
X114390000Y-28840000D02*
G75*
G02*
X110690000Y-28840000I-1850000J0D01*
G01*
X110690000Y-28840000D02*
G75*
G02*
X114390000Y-28840000I1850000J0D01*
G01*
%TO.C,Q40*%
X86400000Y-49470000D02*
X102300000Y-49470000D01*
X86400000Y-70420000D02*
X86400000Y-49470000D01*
X88900000Y-70420000D02*
X88900000Y-75500000D01*
X94350000Y-70420000D02*
X94350000Y-75500000D01*
X99800000Y-70420000D02*
X99800000Y-75500000D01*
X102300000Y-49470000D02*
X102300000Y-70420000D01*
X102300000Y-70420000D02*
X86400000Y-70420000D01*
X96155000Y-55640000D02*
G75*
G02*
X92545000Y-55640000I-1805000J0D01*
G01*
X92545000Y-55640000D02*
G75*
G02*
X96155000Y-55640000I1805000J0D01*
G01*
%TO.C,D33*%
X118540000Y-26040000D02*
X128540000Y-26040000D01*
X118540000Y-32440000D02*
X118540000Y-26040000D01*
X118540000Y-32440000D02*
X128540000Y-32440000D01*
X118540000Y-41690000D02*
X118540000Y-32440000D01*
X121000000Y-41690000D02*
X121000000Y-45500000D01*
X123540000Y-41690000D02*
X123540000Y-45500000D01*
X126080000Y-41690000D02*
X126080000Y-45500000D01*
X128540000Y-26040000D02*
X128540000Y-32440000D01*
X128540000Y-32440000D02*
X118540000Y-32440000D01*
X128540000Y-32440000D02*
X128540000Y-41690000D01*
X128540000Y-41690000D02*
X118540000Y-41690000D01*
X125390000Y-28840000D02*
G75*
G02*
X121690000Y-28840000I-1850000J0D01*
G01*
X121690000Y-28840000D02*
G75*
G02*
X125390000Y-28840000I1850000J0D01*
G01*
%TO.C,Q41*%
X77790000Y-59500000D02*
X85790000Y-59500000D01*
X77790000Y-70500000D02*
X77790000Y-59500000D01*
X79250000Y-70500000D02*
X79250000Y-74500000D01*
X81790000Y-70500000D02*
X81790000Y-74500000D01*
X84330000Y-70500000D02*
X84330000Y-74500000D01*
X85790000Y-59500000D02*
X85790000Y-70500000D01*
X85790000Y-70500000D02*
X77790000Y-70500000D01*
X83390000Y-63400000D02*
G75*
G02*
X80190000Y-63400000I-1600000J0D01*
G01*
X80190000Y-63400000D02*
G75*
G02*
X83390000Y-63400000I1600000J0D01*
G01*
%TD*%
M02*
